<svg width="25" height="25" viewBox="0 0 25 25" fill="none" xmlns="http://www.w3.org/2000/svg">
<path d="M23.4375 2.34119L17.182 2.34121V0.78418C17.182 0.352539 16.8324 0.00292969 16.4008 0.00292969C15.9691 0.00292969 15.6195 0.352539 15.6195 0.78418V2.34082H9.36953V0.78418C9.36953 0.352539 9.01992 0.00292969 8.58828 0.00292969C8.15664 0.00292969 7.80703 0.352539 7.80703 0.78418V2.34082H1.5625C0.699609 2.34082 0 3.04043 0 3.90332V23.4346C0 24.2974 0.699609 24.9971 1.5625 24.9971H23.4375C24.3004 24.9971 25 24.2974 25 23.4346V3.90332C25 3.0408 24.3004 2.34119 23.4375 2.34119ZM23.4375 23.4346H1.5625V3.90332H7.80703V4.69043C7.80703 5.12205 8.15664 5.47168 8.58828 5.47168C9.01992 5.47168 9.36953 5.12205 9.36953 4.69043V3.90371H15.6195V4.69082C15.6195 5.12246 15.9691 5.47207 16.4008 5.47207C16.8324 5.47207 17.182 5.12246 17.182 4.69082V3.90371H23.4375V23.4346ZM17.9688 12.4974H19.5312C19.9625 12.4974 20.3125 12.1474 20.3125 11.7162V10.1537C20.3125 9.72244 19.9625 9.37244 19.5312 9.37244H17.9688C17.5375 9.37244 17.1875 9.72244 17.1875 10.1537V11.7162C17.1875 12.1474 17.5375 12.4974 17.9688 12.4974ZM17.9688 18.747H19.5312C19.9625 18.747 20.3125 18.3974 20.3125 17.9658V16.4033C20.3125 15.972 19.9625 15.622 19.5312 15.622H17.9688C17.5375 15.622 17.1875 15.972 17.1875 16.4033V17.9658C17.1875 18.3978 17.5375 18.747 17.9688 18.747ZM13.2812 15.622H11.7188C11.2875 15.622 10.9375 15.972 10.9375 16.4033V17.9658C10.9375 18.3974 11.2875 18.747 11.7188 18.747H13.2812C13.7125 18.747 14.0625 18.3974 14.0625 17.9658V16.4033C14.0625 15.9724 13.7125 15.622 13.2812 15.622ZM13.2812 9.37244H11.7188C11.2875 9.37244 10.9375 9.72244 10.9375 10.1537V11.7162C10.9375 12.1474 11.2875 12.4974 11.7188 12.4974H13.2812C13.7125 12.4974 14.0625 12.1474 14.0625 11.7162V10.1537C14.0625 9.72205 13.7125 9.37244 13.2812 9.37244ZM7.03125 9.37244H5.46875C5.0375 9.37244 4.6875 9.72244 4.6875 10.1537V11.7162C4.6875 12.1474 5.0375 12.4974 5.46875 12.4974H7.03125C7.4625 12.4974 7.8125 12.1474 7.8125 11.7162V10.1537C7.8125 9.72205 7.4625 9.37244 7.03125 9.37244ZM7.03125 15.622H5.46875C5.0375 15.622 4.6875 15.972 4.6875 16.4033V17.9658C4.6875 18.3974 5.0375 18.747 5.46875 18.747H7.03125C7.4625 18.747 7.8125 18.3974 7.8125 17.9658V16.4033C7.8125 15.9724 7.4625 15.622 7.03125 15.622Z" fill="#1B5E20"/>
</svg>
