<svg width="38" height="38" viewBox="0 0 38 38" fill="none" xmlns="http://www.w3.org/2000/svg">
<path d="M10.6875 2.375L9.5 3.5625V7.18913C10.2893 7.10282 11.0857 7.10282 11.875 7.18913V4.75H33.25V16.625H29.1959L26.125 19.6959V16.625H21.3109C21.3972 17.4143 21.3972 18.2107 21.3109 19H23.75V22.5625L25.7782 23.4032L30.1791 19H34.4375L35.625 17.8125V3.5625L34.4375 2.375H10.6875Z" fill="#1B5E20"/>
<path fill-rule="evenodd" clip-rule="evenodd" d="M15.2404 24.769C16.738 23.7886 17.8792 22.3509 18.4941 20.6698C19.109 18.9887 19.1649 17.1541 18.6533 15.4387C18.1418 13.7233 17.0902 12.2189 15.655 11.1492C14.2197 10.0795 12.4775 9.50171 10.6875 9.50171C8.89748 9.50171 7.15528 10.0795 5.72004 11.1492C4.2848 12.2189 3.2332 13.7233 2.72166 15.4387C2.21012 17.1541 2.26596 18.9887 2.88089 20.6698C3.49582 22.3509 4.63698 23.7886 6.13462 24.769C4.30027 25.6327 2.74945 27.0004 1.66321 28.7124C0.576965 30.4244 0.000114548 32.4101 0 34.4376L0 35.6251H2.375V34.4376C2.4479 32.2816 3.3556 30.2383 4.90654 28.7389C6.45747 27.2396 8.53029 26.4014 10.6875 26.4014C12.8447 26.4014 14.9175 27.2396 16.4685 28.7389C18.0194 30.2383 18.9271 32.2816 19 34.4376V35.6251H21.375V34.4376C21.3749 32.4101 20.798 30.4244 19.7118 28.7124C18.6255 27.0004 17.0747 25.6327 15.2404 24.769ZM10.6875 23.7501C9.11278 23.7501 7.60255 23.1246 6.48905 22.0111C5.37556 20.8976 4.75 19.3873 4.75 17.8126C4.75 16.2379 5.37556 14.7277 6.48905 13.6142C7.60255 12.5007 9.11278 11.8751 10.6875 11.8751C12.2622 11.8751 13.7724 12.5007 14.8859 13.6142C15.9994 14.7277 16.625 16.2379 16.625 17.8126C16.625 19.3873 15.9994 20.8976 14.8859 22.0111C13.7724 23.1246 12.2622 23.7501 10.6875 23.7501Z" fill="#1B5E20"/>
</svg>
