<svg width="26" height="28" viewBox="0 0 26 28" fill="none" xmlns="http://www.w3.org/2000/svg">
<path d="M13 1.125C19.5586 1.125 24.875 6.44143 24.875 13C24.875 19.5586 19.5586 24.875 13 24.875C6.44143 24.875 1.125 19.5586 1.125 13C1.125 6.44143 6.44143 1.125 13 1.125ZM14.582 2.49414C12.5601 2.18978 10.4926 2.47526 8.62891 3.31641C6.76537 4.15751 5.18451 5.51888 4.0752 7.23633C2.96585 8.95394 2.37519 10.9553 2.375 13C2.37477 15.5881 3.3195 18.0872 5.03125 20.0283C6.743 21.9694 9.10416 23.2195 11.6719 23.543L12.375 23.6309V14.875H9.25C9.08424 14.875 8.92483 14.8096 8.80762 14.6924C8.69041 14.5752 8.625 14.4158 8.625 14.25C8.625 14.0842 8.69041 13.9248 8.80762 13.8076C8.92483 13.6904 9.08424 13.625 9.25 13.625H12.375V10.5C12.375 9.6712 12.704 8.87609 13.29 8.29004C13.8761 7.70399 14.6712 7.375 15.5 7.375H16.125C16.2908 7.375 16.4502 7.44041 16.5674 7.55762C16.6846 7.67483 16.75 7.83424 16.75 8C16.75 8.16576 16.6846 8.32517 16.5674 8.44238C16.4502 8.55959 16.2908 8.625 16.125 8.625H15.5C15.0027 8.625 14.5255 8.8222 14.1738 9.17383C13.8222 9.52546 13.625 10.0027 13.625 10.5V13.625H16.75C16.9158 13.625 17.0752 13.6904 17.1924 13.8076C17.3096 13.9248 17.375 14.0842 17.375 14.25C17.375 14.4158 17.3096 14.5752 17.1924 14.6924C17.0752 14.8096 16.9158 14.875 16.75 14.875H13.625V23.6309L14.3281 23.543C16.3566 23.2874 18.2685 22.4517 19.834 21.1367C21.3996 19.8215 22.5525 18.0821 23.1543 16.1279C23.7561 14.1738 23.7811 12.0872 23.2266 10.1191C22.672 8.15117 21.5617 6.38468 20.0283 5.03223C18.495 3.67982 16.6038 2.79856 14.582 2.49414Z" fill="black" stroke="#1B5E20" stroke-width="1.25"/>
</svg>
