<svg width="61" height="61" viewBox="0 0 61 61" fill="none" xmlns="http://www.w3.org/2000/svg">
<path d="M49.0979 5.32812C49.6349 5.32459 50.0667 5.33637 50.3635 5.34961C50.4578 5.35382 50.5387 5.35842 50.6047 5.3623C50.6083 5.42795 50.6127 5.50799 50.6165 5.60156C50.6283 5.89708 50.639 6.3273 50.6331 6.8623C50.6211 7.93257 50.5433 9.42118 50.2815 11.0938C49.7567 14.446 48.4968 18.5045 45.5735 21.4277C42.65 24.3512 38.5918 25.6203 35.2395 26.1543C33.5666 26.4208 32.0775 26.5032 31.0071 26.5186C30.4721 26.5262 30.0419 26.5167 29.7463 26.5059C29.6532 26.5024 29.5735 26.4975 29.5081 26.4941C29.5042 26.428 29.4995 26.347 29.4954 26.2529C29.4821 25.955 29.4703 25.5213 29.4739 24.9824C29.481 23.9037 29.5515 22.4035 29.8069 20.7197C30.3189 17.3451 31.5669 13.2663 34.4895 10.3438C37.4123 7.42097 41.4825 6.17305 44.8479 5.66113C46.5271 5.40574 48.0227 5.33521 49.0979 5.32812Z" stroke="#1B5E20" stroke-width="0.5"/>
<path d="M29.2736 26.7321L39.3958 16.6099M29.2736 26.7321C29.2736 26.7321 28.3574 16.1219 34.3125 10.1667C40.2676 4.21161 50.8409 5.12788 50.8409 5.12788C50.8409 5.12788 51.7051 15.6491 45.75 21.6042C39.7949 27.5594 29.2736 26.7321 29.2736 26.7321Z" stroke="#1B5E20" stroke-width="2" stroke-linecap="round" stroke-linejoin="round"/>
<path d="M12.9751 23.0647C13.8907 23.0374 15.1627 23.052 16.5845 23.217C19.3471 23.5377 22.6401 24.424 25.0132 26.6458L25.2397 26.8645C27.627 29.2474 28.5613 32.6652 28.8911 35.5188C29.0555 36.9413 29.0685 38.2136 29.0405 39.1301C29.0265 39.5882 29.0026 39.9577 28.9819 40.2112C28.9759 40.2846 28.9684 40.3482 28.9634 40.4016C28.9102 40.4066 28.8469 40.4133 28.7739 40.4192C28.5206 40.4396 28.1516 40.4632 27.6938 40.4768C26.7779 40.5041 25.5064 40.4904 24.0845 40.3254C21.2319 39.9945 17.8144 39.0601 15.4282 36.677C13.041 34.2941 12.107 30.8763 11.7778 28.0227C11.6137 26.6002 11.6012 25.3279 11.6294 24.4114C11.6435 23.9534 11.6682 23.5848 11.689 23.3313C11.695 23.2576 11.7005 23.1935 11.7056 23.1399C11.7589 23.1349 11.8226 23.1292 11.896 23.1233C12.1491 23.1028 12.5177 23.0784 12.9751 23.0647Z" stroke="#1B5E20" stroke-width="0.5"/>
<path d="M29.1922 40.63L20.3345 31.771M29.1922 40.63C29.1922 40.63 30.308 31.5715 25.4179 26.6877C20.5251 21.8038 11.4781 22.912 11.4781 22.912C11.4781 22.912 10.3585 31.9705 15.2499 36.8543C20.1414 41.7381 29.1922 40.63 29.1922 40.63ZM29.2291 5.0835V55.9168" stroke="#1B5E20" stroke-width="2" stroke-linecap="round" stroke-linejoin="round"/>
</svg>
