<svg width="26" height="26" viewBox="0 0 26 26" fill="none" xmlns="http://www.w3.org/2000/svg">
<path d="M7.75 1.125H18.25C21.9048 1.125 24.875 4.09518 24.875 7.75V18.25C24.875 20.0071 24.177 21.6921 22.9346 22.9346C21.6921 24.177 20.0071 24.875 18.25 24.875H7.75C4.09518 24.875 1.125 21.9048 1.125 18.25V7.75C1.125 5.99294 1.823 4.30786 3.06543 3.06543C4.30786 1.823 5.99294 1.125 7.75 1.125ZM7.5 2.375C6.14077 2.375 4.8371 2.91485 3.87598 3.87598C2.91485 4.8371 2.375 6.14077 2.375 7.5V18.5C2.375 21.3327 4.66732 23.625 7.5 23.625H18.5C19.8592 23.625 21.1629 23.0851 22.124 22.124C23.0851 21.1629 23.625 19.8592 23.625 18.5V7.5C23.625 4.66732 21.3327 2.375 18.5 2.375H7.5ZM13 7.375C14.4918 7.375 15.9226 7.96757 16.9775 9.02246C18.0324 10.0774 18.625 11.5082 18.625 13C18.625 14.4918 18.0324 15.9226 16.9775 16.9775C15.9226 18.0324 14.4918 18.625 13 18.625C11.5082 18.625 10.0774 18.0324 9.02246 16.9775C7.96757 15.9226 7.375 14.4918 7.375 13C7.375 11.5082 7.96757 10.0774 9.02246 9.02246C10.0774 7.96757 11.5082 7.375 13 7.375ZM13 8.625C11.8397 8.625 10.7267 9.08578 9.90625 9.90625C9.08578 10.7267 8.625 11.8397 8.625 13C8.625 14.1603 9.08578 15.2733 9.90625 16.0938C10.7267 16.9142 11.8397 17.375 13 17.375C14.1603 17.375 15.2733 16.9142 16.0938 16.0938C16.9142 15.2733 17.375 14.1603 17.375 13C17.375 11.8397 16.9142 10.7267 16.0938 9.90625C15.2733 9.08578 14.1603 8.625 13 8.625ZM19.5625 5.5C19.8111 5.5 20.0498 5.5986 20.2256 5.77441C20.4014 5.95023 20.5 6.18886 20.5 6.4375C20.5 6.68614 20.4014 6.92477 20.2256 7.10059C20.0498 7.2764 19.8111 7.375 19.5625 7.375C19.3139 7.375 19.0752 7.2764 18.8994 7.10059C18.7236 6.92477 18.625 6.68614 18.625 6.4375C18.625 6.18886 18.7236 5.95023 18.8994 5.77441C19.0752 5.5986 19.3139 5.5 19.5625 5.5Z" fill="black" stroke="#1B5E20" stroke-width="1.25"/>
</svg>
