<svg width="24" height="24" viewBox="0 0 24 24" fill="none" xmlns="http://www.w3.org/2000/svg">
<path d="M2.78613 18.2734H12.2139C12.3086 18.2734 12.3998 18.311 12.4668 18.3779C12.5336 18.4448 12.5712 18.5353 12.5713 18.6299V22.3447H13.9287C14.0802 22.3448 14.2259 22.4046 14.333 22.5117C14.4401 22.6189 14.5 22.7645 14.5 22.916C14.5 23.0675 14.4401 23.2132 14.333 23.3203C14.2259 23.4274 14.0802 23.4873 13.9287 23.4873H1.07129C0.919785 23.4873 0.774121 23.4274 0.666992 23.3203C0.559865 23.2132 0.50003 23.0675 0.5 22.916C0.5 22.7645 0.559907 22.6189 0.666992 22.5117C0.774123 22.4046 0.919787 22.3448 1.07129 22.3447H2.42871V18.6299C2.42879 18.5353 2.46638 18.4448 2.5332 18.3779C2.60018 18.311 2.69141 18.2734 2.78613 18.2734ZM15.04 0.512695C15.3595 0.513619 15.6759 0.577991 15.9707 0.701172C16.2656 0.82443 16.5336 1.00465 16.7588 1.23145L19.6953 4.18848C20.1498 4.64568 20.4041 5.26455 20.4023 5.90918C20.4005 6.55384 20.1426 7.17135 19.6855 7.62598L17.4229 9.87598L17.0674 10.2295L17.4219 10.584L23.208 16.3682C23.3954 16.5558 23.5009 16.81 23.501 17.0752C23.501 17.3406 23.3956 17.5955 23.208 17.7832C23.0203 17.9709 22.7654 18.0762 22.5 18.0762C22.2346 18.0762 21.9797 17.9709 21.792 17.7832L16.002 11.9902L15.6494 11.6377L15.2959 11.9893L12.9932 14.2773C12.5357 14.7317 11.9162 14.9865 11.2715 14.9844C10.6271 14.9821 10.01 14.7236 9.55566 14.2666H9.55469L6.61719 11.3105H6.61621C6.39082 11.0841 6.21233 10.815 6.09082 10.5195C5.96934 10.224 5.90728 9.90738 5.9082 9.58789C5.90914 9.26834 5.97344 8.95205 6.09668 8.65723C6.21994 8.36243 6.4002 8.09426 6.62695 7.86914L13.3174 1.22168L13.3184 1.2207C13.5447 0.995459 13.8131 0.816788 14.1084 0.695312C14.4038 0.573816 14.7206 0.511828 15.04 0.512695ZM15.0371 1.65625C14.8679 1.65577 14.7004 1.68865 14.5439 1.75293C14.4265 1.80119 14.3168 1.86631 14.2188 1.94629L14.124 2.03125L7.43066 8.68457H7.42969C7.18793 8.92539 7.05183 9.2525 7.05078 9.59375C7.04976 9.93509 7.18439 10.2626 7.4248 10.5049V10.5059L10.3633 13.4629C10.4825 13.5829 10.6243 13.6779 10.7803 13.7432C10.9365 13.8085 11.1041 13.8432 11.2734 13.8438C11.4428 13.8443 11.6109 13.8105 11.7676 13.7461C11.9241 13.6817 12.0666 13.5872 12.1865 13.4678L18.8789 6.81641C19.1208 6.57556 19.2577 6.24861 19.2588 5.90723C19.2598 5.56598 19.125 5.23839 18.8848 4.99609L15.9482 2.03711C15.8289 1.91689 15.6865 1.82121 15.5303 1.75586C15.3741 1.69058 15.2064 1.65677 15.0371 1.65625Z" fill="#1B5E20"/>
<path d="M2.78613 18.2734H12.2139C12.3086 18.2734 12.3998 18.311 12.4668 18.3779C12.5336 18.4448 12.5712 18.5353 12.5713 18.6299V22.3447H13.9287C14.0802 22.3448 14.2259 22.4046 14.333 22.5117C14.4401 22.6189 14.5 22.7645 14.5 22.916C14.5 23.0675 14.4401 23.2132 14.333 23.3203C14.2259 23.4274 14.0802 23.4873 13.9287 23.4873H1.07129C0.919785 23.4873 0.774121 23.4274 0.666992 23.3203C0.559865 23.2132 0.50003 23.0675 0.5 22.916C0.5 22.7645 0.559907 22.6189 0.666992 22.5117C0.774123 22.4046 0.919787 22.3448 1.07129 22.3447H2.42871V18.6299C2.42879 18.5353 2.46638 18.4448 2.5332 18.3779C2.60018 18.311 2.69141 18.2734 2.78613 18.2734ZM15.04 0.512695C15.3595 0.513619 15.6759 0.577991 15.9707 0.701172C16.2656 0.82443 16.5336 1.00465 16.7588 1.23145L19.6953 4.18848C20.1498 4.64568 20.4041 5.26455 20.4023 5.90918C20.4005 6.55384 20.1426 7.17135 19.6855 7.62598L17.4229 9.87598L17.0674 10.2295L17.4219 10.584L23.208 16.3682C23.3954 16.5558 23.5009 16.81 23.501 17.0752C23.501 17.3406 23.3956 17.5955 23.208 17.7832C23.0203 17.9709 22.7654 18.0762 22.5 18.0762C22.2346 18.0762 21.9797 17.9709 21.792 17.7832L16.002 11.9902L15.6494 11.6377L15.2959 11.9893L12.9932 14.2773C12.5357 14.7317 11.9162 14.9865 11.2715 14.9844C10.6271 14.9821 10.01 14.7236 9.55566 14.2666H9.55469L6.61719 11.3105H6.61621C6.39082 11.0841 6.21233 10.815 6.09082 10.5195C5.96934 10.224 5.90728 9.90738 5.9082 9.58789C5.90914 9.26834 5.97344 8.95205 6.09668 8.65723C6.21994 8.36243 6.4002 8.09426 6.62695 7.86914L13.3174 1.22168L13.3184 1.2207C13.5447 0.995459 13.8131 0.816788 14.1084 0.695312C14.4038 0.573816 14.7206 0.511828 15.04 0.512695ZM15.0371 1.65625C14.8679 1.65577 14.7004 1.68865 14.5439 1.75293C14.4265 1.80119 14.3168 1.86631 14.2188 1.94629L14.124 2.03125L7.43066 8.68457H7.42969C7.18793 8.92539 7.05183 9.2525 7.05078 9.59375C7.04976 9.93509 7.18439 10.2626 7.4248 10.5049V10.5059L10.3633 13.4629C10.4825 13.5829 10.6243 13.6779 10.7803 13.7432C10.9365 13.8085 11.1041 13.8432 11.2734 13.8438C11.4428 13.8443 11.6109 13.8105 11.7676 13.7461C11.9241 13.6817 12.0666 13.5872 12.1865 13.4678L18.8789 6.81641C19.1208 6.57556 19.2577 6.24861 19.2588 5.90723C19.2598 5.56598 19.125 5.23839 18.8848 4.99609L15.9482 2.03711C15.8289 1.91689 15.6865 1.82121 15.5303 1.75586C15.3741 1.69058 15.2064 1.65677 15.0371 1.65625Z" stroke="black"/>
<path d="M2.78613 18.2734H12.2139C12.3086 18.2734 12.3998 18.311 12.4668 18.3779C12.5336 18.4448 12.5712 18.5353 12.5713 18.6299V22.3447H13.9287C14.0802 22.3448 14.2259 22.4046 14.333 22.5117C14.4401 22.6189 14.5 22.7645 14.5 22.916C14.5 23.0675 14.4401 23.2132 14.333 23.3203C14.2259 23.4274 14.0802 23.4873 13.9287 23.4873H1.07129C0.919785 23.4873 0.774121 23.4274 0.666992 23.3203C0.559865 23.2132 0.50003 23.0675 0.5 22.916C0.5 22.7645 0.559907 22.6189 0.666992 22.5117C0.774123 22.4046 0.919787 22.3448 1.07129 22.3447H2.42871V18.6299C2.42879 18.5353 2.46638 18.4448 2.5332 18.3779C2.60018 18.311 2.69141 18.2734 2.78613 18.2734ZM15.04 0.512695C15.3595 0.513619 15.6759 0.577991 15.9707 0.701172C16.2656 0.82443 16.5336 1.00465 16.7588 1.23145L19.6953 4.18848C20.1498 4.64568 20.4041 5.26455 20.4023 5.90918C20.4005 6.55384 20.1426 7.17135 19.6855 7.62598L17.4229 9.87598L17.0674 10.2295L17.4219 10.584L23.208 16.3682C23.3954 16.5558 23.5009 16.81 23.501 17.0752C23.501 17.3406 23.3956 17.5955 23.208 17.7832C23.0203 17.9709 22.7654 18.0762 22.5 18.0762C22.2346 18.0762 21.9797 17.9709 21.792 17.7832L16.002 11.9902L15.6494 11.6377L15.2959 11.9893L12.9932 14.2773C12.5357 14.7317 11.9162 14.9865 11.2715 14.9844C10.6271 14.9821 10.01 14.7236 9.55566 14.2666H9.55469L6.61719 11.3105H6.61621C6.39082 11.0841 6.21233 10.815 6.09082 10.5195C5.96934 10.224 5.90728 9.90738 5.9082 9.58789C5.90914 9.26834 5.97344 8.95205 6.09668 8.65723C6.21994 8.36243 6.4002 8.09426 6.62695 7.86914L13.3174 1.22168L13.3184 1.2207C13.5447 0.995459 13.8131 0.816788 14.1084 0.695312C14.4038 0.573816 14.7206 0.511828 15.04 0.512695ZM15.0371 1.65625C14.8679 1.65577 14.7004 1.68865 14.5439 1.75293C14.4265 1.80119 14.3168 1.86631 14.2188 1.94629L14.124 2.03125L7.43066 8.68457H7.42969C7.18793 8.92539 7.05183 9.2525 7.05078 9.59375C7.04976 9.93509 7.18439 10.2626 7.4248 10.5049V10.5059L10.3633 13.4629C10.4825 13.5829 10.6243 13.6779 10.7803 13.7432C10.9365 13.8085 11.1041 13.8432 11.2734 13.8438C11.4428 13.8443 11.6109 13.8105 11.7676 13.7461C11.9241 13.6817 12.0666 13.5872 12.1865 13.4678L18.8789 6.81641C19.1208 6.57556 19.2577 6.24861 19.2588 5.90723C19.2598 5.56598 19.125 5.23839 18.8848 4.99609L15.9482 2.03711C15.8289 1.91689 15.6865 1.82121 15.5303 1.75586C15.3741 1.69058 15.2064 1.65677 15.0371 1.65625Z" stroke="black" stroke-opacity="0.2"/>
</svg>
