<svg width="24" height="24" viewBox="0 0 24 24" fill="none" xmlns="http://www.w3.org/2000/svg">
<g clip-path="url(#clip0_1163_393)">
<path fill-rule="evenodd" clip-rule="evenodd" d="M4.67143 4.66752C3.06857 6.27038 2.14286 8.69609 2.14286 11.9978C2.14286 15.2995 3.06857 17.7252 4.67143 19.3281C6.27429 20.9309 8.7 21.8567 12 21.8567C15.3 21.8567 17.7274 20.9309 19.3303 19.3281C20.9331 17.7252 21.8606 15.2995 21.8606 11.9995C21.8606 11.7154 21.9735 11.4428 22.1744 11.2419C22.3753 11.041 22.6478 10.9281 22.932 10.9281C23.2162 10.9281 23.4887 11.041 23.6896 11.2419C23.8905 11.4428 24.0034 11.7154 24.0034 11.9995C24.0034 15.6938 22.9611 18.7315 20.8491 20.8452C18.732 22.9572 15.6943 23.9995 12 23.9995C8.30571 23.9995 5.26629 22.9589 3.15429 20.8452C1.04229 18.7315 0 15.6921 0 11.9995C0 8.30695 1.04229 5.26752 3.15429 3.15381C5.26629 1.04009 8.30914 -0.00390625 12 -0.00390625C12.2842 -0.00390625 12.5567 0.108976 12.7576 0.309908C12.9585 0.51084 13.0714 0.783362 13.0714 1.06752C13.0714 1.35168 12.9585 1.6242 12.7576 1.82514C12.5567 2.02607 12.2842 2.13895 12 2.13895C8.70171 2.13895 6.27429 3.06467 4.67143 4.66752ZM11.2971 6.25838C11.3602 6.53525 11.3107 6.82583 11.1597 7.06626C11.0086 7.3067 10.7682 7.47733 10.4914 7.54066C9.44228 7.77895 8.69829 8.27267 8.20457 8.96009C7.70057 9.66124 7.38857 10.6572 7.38857 11.9978C7.38857 13.6178 7.84286 14.7338 8.55429 15.4452C9.264 16.1567 10.38 16.6109 12 16.6109C13.4091 16.6109 14.4343 16.2681 15.1406 15.7195C15.8349 15.1778 16.3234 14.3584 16.5206 13.1875C16.5438 13.0487 16.5941 12.9159 16.6686 12.7965C16.7431 12.6772 16.8404 12.5737 16.955 12.4919C17.0695 12.4102 17.199 12.3518 17.3361 12.3201C17.4732 12.2884 17.6152 12.284 17.754 12.3072C17.8928 12.3304 18.0257 12.3807 18.145 12.4553C18.2644 12.5298 18.3679 12.6271 18.4496 12.7416C18.5313 12.8562 18.5897 12.9857 18.6214 13.1228C18.6531 13.2599 18.6575 13.4019 18.6343 13.5407C18.3651 15.1487 17.6434 16.4875 16.4554 17.4098C15.2777 18.3252 13.7469 18.7521 12.0017 18.7521C9.98571 18.7521 8.25943 18.1812 7.03886 16.9607C5.81829 15.7401 5.24571 14.0121 5.24571 11.9978C5.24571 10.3332 5.63314 8.86581 6.46286 7.71038C7.30286 6.54466 8.52686 5.79038 10.0149 5.45095C10.1521 5.41976 10.2941 5.41591 10.4328 5.43961C10.5715 5.46331 10.7042 5.51409 10.8232 5.58907C10.9423 5.66405 11.0454 5.76175 11.1268 5.87659C11.2081 5.99143 11.266 6.12116 11.2971 6.25838ZM16.32 9.19495L12.7594 12.7555C12.6599 12.855 12.5418 12.934 12.4118 12.9878C12.2818 13.0417 12.1424 13.0694 12.0017 13.0694C11.861 13.0694 11.7217 13.0417 11.5916 12.9878C11.4616 12.934 11.3435 12.855 11.244 12.7555C11.1445 12.656 11.0656 12.5379 11.0117 12.4079C10.9579 12.2779 10.9301 12.1385 10.9301 11.9978C10.9301 11.8571 10.9579 11.7177 11.0117 11.5877C11.0656 11.4577 11.1445 11.3396 11.244 11.2401L14.8029 7.67952L14.7463 7.49095C14.5165 6.74642 14.494 5.95333 14.6813 5.19699C14.8686 4.44065 15.2585 3.74967 15.8091 3.19838L18.7577 0.249808C18.8623 0.145078 18.9921 0.0691989 19.1347 0.0295547C19.2773 -0.0100896 19.4277 -0.0121479 19.5713 0.02358C19.7149 0.0593078 19.8468 0.131605 19.9542 0.233434C20.0615 0.335264 20.1407 0.463157 20.184 0.604665L20.94 3.05952L23.3949 3.81552C23.5364 3.8588 23.6643 3.93798 23.7661 4.04536C23.8679 4.15273 23.9402 4.28463 23.9759 4.42824C24.0117 4.57184 24.0096 4.72224 23.97 4.86481C23.9303 5.00738 23.8544 5.13726 23.7497 5.24181L20.8011 8.19038C20.2498 8.74102 19.5589 9.13095 18.8025 9.31822C18.0462 9.50549 17.2531 9.48303 16.5086 9.25324L16.32 9.19495Z" fill="#1B5E20"/>
</g>
<defs>
<clipPath id="clip0_1163_393">
<rect width="24" height="24" fill="white"/>
</clipPath>
</defs>
</svg>
