<svg width="29" height="21" viewBox="0 0 29 21" fill="none" xmlns="http://www.w3.org/2000/svg">
<path d="M10.375 12.9062C7.1575 12.9062 0.75 14.515 0.75 17.7188V20.125H20V17.7188C20 14.515 13.5925 12.9062 10.375 12.9062ZM3.9675 17.375C5.1225 16.5775 7.91375 15.6562 10.375 15.6562C12.8362 15.6562 15.6275 16.5775 16.7825 17.375H3.9675ZM10.375 10.5C13.0287 10.5 15.1875 8.34125 15.1875 5.6875C15.1875 3.03375 13.0287 0.875 10.375 0.875C7.72125 0.875 5.5625 3.03375 5.5625 5.6875C5.5625 8.34125 7.72125 10.5 10.375 10.5ZM10.375 3.625C11.5163 3.625 12.4375 4.54625 12.4375 5.6875C12.4375 6.82875 11.5163 7.75 10.375 7.75C9.23375 7.75 8.3125 6.82875 8.3125 5.6875C8.3125 4.54625 9.23375 3.625 10.375 3.625ZM20.055 12.9888C21.65 14.1438 22.75 15.6837 22.75 17.7188V20.125H28.25V17.7188C28.25 14.9413 23.4375 13.36 20.055 12.9888ZM18.625 10.5C21.2787 10.5 23.4375 8.34125 23.4375 5.6875C23.4375 3.03375 21.2787 0.875 18.625 0.875C17.8825 0.875 17.195 1.05375 16.5625 1.35625C17.4287 2.58 17.9375 4.07875 17.9375 5.6875C17.9375 7.29625 17.4287 8.795 16.5625 10.0187C17.195 10.3212 17.8825 10.5 18.625 10.5Z" fill="#1B5E20"/>
</svg>
