<svg width="33" height="33" viewBox="0 0 33 33" fill="none" xmlns="http://www.w3.org/2000/svg">
<path d="M12.375 18.9062C9.1575 18.9062 2.75 20.515 2.75 23.7188V26.125H22V23.7188C22 20.515 15.5925 18.9062 12.375 18.9062ZM5.9675 23.375C7.1225 22.5775 9.91375 21.6562 12.375 21.6562C14.8363 21.6562 17.6275 22.5775 18.7825 23.375H5.9675ZM12.375 16.5C15.0287 16.5 17.1875 14.3412 17.1875 11.6875C17.1875 9.03375 15.0287 6.875 12.375 6.875C9.72125 6.875 7.5625 9.03375 7.5625 11.6875C7.5625 14.3412 9.72125 16.5 12.375 16.5ZM12.375 9.625C13.5162 9.625 14.4375 10.5463 14.4375 11.6875C14.4375 12.8288 13.5162 13.75 12.375 13.75C11.2338 13.75 10.3125 12.8288 10.3125 11.6875C10.3125 10.5463 11.2338 9.625 12.375 9.625ZM22.055 18.9888C23.65 20.1438 24.75 21.6838 24.75 23.7188V26.125H30.25V23.7188C30.25 20.9412 25.4375 19.36 22.055 18.9888ZM20.625 16.5C23.2787 16.5 25.4375 14.3412 25.4375 11.6875C25.4375 9.03375 23.2787 6.875 20.625 6.875C19.8825 6.875 19.195 7.05375 18.5625 7.35625C19.4287 8.58 19.9375 10.0788 19.9375 11.6875C19.9375 13.2962 19.4287 14.795 18.5625 16.0187C19.195 16.3212 19.8825 16.5 20.625 16.5Z" fill="#1B5E20"/>
</svg>
