<svg width="35" height="35" viewBox="0 0 35 35" fill="none" xmlns="http://www.w3.org/2000/svg">
<path d="M32.8125 22.6147V18.3203C32.8148 17.8494 32.6641 17.3906 32.3829 17.0128C32.1018 16.635 31.7056 16.3588 31.2539 16.2258L31.2252 16.2176L26.25 14.8627V9.84375C26.25 9.55367 26.1348 9.27547 25.9297 9.07035C25.7245 8.86524 25.4463 8.75 25.1563 8.75C24.8662 8.75 24.588 8.86524 24.3829 9.07035C24.1777 9.27547 24.0625 9.55367 24.0625 9.84375V14.2707L20.7813 13.382V7.65625H21.875C22.1651 7.65625 22.4433 7.54102 22.6484 7.3359C22.8535 7.13078 22.9688 6.85258 22.9688 6.5625C22.9688 6.27242 22.8535 5.99422 22.6484 5.7891C22.4433 5.58398 22.1651 5.46875 21.875 5.46875H5.46875C5.17867 5.46875 4.90047 5.58398 4.69536 5.7891C4.49024 5.99422 4.375 6.27242 4.375 6.5625C4.375 6.85258 4.49024 7.13078 4.69536 7.3359C4.90047 7.54102 5.17867 7.65625 5.46875 7.65625H6.5625V12.0313H5.46875C5.17867 12.0313 4.90047 12.1465 4.69536 12.3516C4.49024 12.5567 4.375 12.8349 4.375 13.125C4.375 13.4151 4.49024 13.6933 4.69536 13.8984C4.90047 14.1035 5.17867 14.2188 5.46875 14.2188H9.29688C11.7618 14.2213 14.125 15.2016 15.868 16.9445C17.6109 18.6875 18.5912 21.0507 18.5938 23.5156V25.1563C18.5938 25.4463 18.709 25.7245 18.9141 25.9297C19.1192 26.1348 19.3974 26.25 19.6875 26.25H24.094C24.1778 27.0101 24.4376 27.7402 24.8527 28.3824C25.2678 29.0246 25.8268 29.5612 26.4855 29.9497C27.1441 30.3382 27.8842 30.5679 28.6471 30.6206C29.4099 30.6733 30.1746 30.5475 30.8804 30.2532C31.5861 29.9589 32.2137 29.5043 32.7131 28.9252C33.2126 28.3462 33.5702 27.6587 33.7578 26.9174C33.9453 26.1761 33.9575 25.4012 33.7934 24.6544C33.6293 23.9075 33.2935 23.2091 32.8125 22.6147ZM9.29688 12.0313H8.75001V7.65625H18.5938V16.785C17.5306 15.3137 16.1336 14.1156 14.5174 13.2892C12.9013 12.4628 11.1121 12.0317 9.29688 12.0313ZM20.7813 15.6475L30.625 18.3203V21.0684C29.3951 20.633 28.0426 20.7039 26.8648 21.2653C25.687 21.8267 24.7804 22.8329 24.3442 24.0625H20.7813V15.6475ZM28.9844 28.4375C28.4436 28.4375 27.9149 28.2771 27.4653 27.9767C27.0156 27.6762 26.6651 27.2492 26.4582 26.7495C26.2512 26.2499 26.197 25.7001 26.3026 25.1697C26.4081 24.6393 26.6685 24.152 27.0509 23.7696C27.4333 23.3872 27.9205 23.1268 28.4509 23.0213C28.9814 22.9158 29.5311 22.9699 30.0308 23.1769C30.5304 23.3839 30.9575 23.7343 31.2579 24.184C31.5584 24.6337 31.7188 25.1623 31.7188 25.7031C31.7188 26.4283 31.4307 27.1238 30.9179 27.6366C30.4051 28.1494 29.7096 28.4375 28.9844 28.4375ZM9.29688 16.4063C7.89078 16.4063 6.51625 16.8232 5.34712 17.6044C4.17799 18.3856 3.26676 19.4959 2.72867 20.795C2.19058 22.0941 2.04979 23.5235 2.32411 24.9026C2.59842 26.2817 3.27553 27.5485 4.26979 28.5427C5.26406 29.537 6.53083 30.2141 7.90991 30.4884C9.28899 30.7627 10.7185 30.6219 12.0175 30.0838C13.3166 29.5457 14.4269 28.6345 15.2081 27.4654C15.9893 26.2963 16.4063 24.9217 16.4063 23.5156C16.4041 21.6308 15.6544 19.8237 14.3216 18.4909C12.9888 17.1581 11.1817 16.4084 9.29688 16.4063ZM9.29688 28.4375C8.32343 28.4375 7.37183 28.1488 6.56243 27.608C5.75303 27.0672 5.12218 26.2985 4.74966 25.3991C4.37713 24.4998 4.27966 23.5102 4.46958 22.5554C4.65949 21.6007 5.12825 20.7237 5.81659 20.0353C6.50493 19.347 7.38192 18.8782 8.33667 18.6883C9.29142 18.4984 10.281 18.5959 11.1804 18.9684C12.0798 19.3409 12.8484 19.9718 13.3893 20.7812C13.9301 21.5906 14.2188 22.5422 14.2188 23.5156C14.2188 24.821 13.7002 26.0729 12.7772 26.9959C11.8541 27.919 10.6022 28.4375 9.29688 28.4375ZM10.9375 23.5156C10.9375 23.8401 10.8413 24.1573 10.661 24.4271C10.4807 24.6969 10.2245 24.9072 9.92472 25.0314C9.62494 25.1555 9.29506 25.188 8.97681 25.1247C8.65856 25.0614 8.36623 24.9052 8.13678 24.6757C7.90734 24.4463 7.75108 24.1539 7.68778 23.8357C7.62448 23.5174 7.65696 23.1876 7.78114 22.8878C7.90531 22.588 8.1156 22.3318 8.3854 22.1515C8.6552 21.9712 8.9724 21.875 9.29688 21.875C9.732 21.875 10.1493 22.0479 10.457 22.3555C10.7647 22.6632 10.9375 23.0805 10.9375 23.5156Z" fill="#1B5E20"/>
</svg>
