<svg width="52" height="52" viewBox="0 0 52 52" fill="none" xmlns="http://www.w3.org/2000/svg">
<path d="M1 51H51M8.62222 19.8667L44.3333 3.64444M44.3333 3.64444L41.6889 10.7333M44.3333 3.64444L37.2667 1M12.6667 35.4444H6C5.55976 35.4502 5.13918 35.6276 4.82785 35.939C4.51653 36.2503 4.33909 36.6709 4.33333 37.1111V51H14.3333V37.1111C14.3276 36.6709 14.1501 36.2503 13.8388 35.939C13.5275 35.6276 13.1069 35.4502 12.6667 35.4444ZM29.3333 26.5556H22.6667C22.2264 26.5613 21.8058 26.7388 21.4945 27.0501C21.1832 27.3614 21.0058 27.782 21 28.2222V51H31V28.2222C30.9942 27.782 30.8168 27.3614 30.5055 27.0501C30.1942 26.7388 29.7736 26.5613 29.3333 26.5556ZM46 17.6667H39.3333C38.8931 17.6724 38.4725 17.8499 38.1612 18.1612C37.8499 18.4725 37.6724 18.8931 37.6667 19.3333V51H47.6667V19.3333C47.6609 18.8931 47.4835 18.4725 47.1721 18.1612C46.8608 17.8499 46.4402 17.6724 46 17.6667Z" stroke="#1B5E20" stroke-width="2" stroke-linecap="round" stroke-linejoin="round"/>
</svg>
