<svg width="22" height="24" viewBox="0 0 22 24" fill="none" xmlns="http://www.w3.org/2000/svg">
<path d="M12.3519 10.39L6.36935 2.0025C6.29997 1.90505 6.20829 1.82562 6.10195 1.77082C5.99562 1.71602 5.87772 1.68745 5.7581 1.6875H2.6006C2.46298 1.68768 2.32805 1.72572 2.21061 1.79746C2.09316 1.8692 1.99772 1.97187 1.93473 2.09423C1.87174 2.2166 1.84363 2.35393 1.85349 2.4912C1.86334 2.62848 1.91078 2.76039 1.9906 2.8725L9.64935 13.61M12.3519 10.39L20.0106 21.1275C20.0904 21.2396 20.1379 21.3715 20.1477 21.5088C20.1576 21.6461 20.1295 21.7834 20.0665 21.9058C20.0035 22.0281 19.908 22.1308 19.7906 22.2025C19.6731 22.2743 19.5382 22.3123 19.4006 22.3125H16.2431C16.1235 22.3125 16.0056 22.284 15.8992 22.2292C15.7929 22.1744 15.7012 22.0949 15.6319 21.9975L9.64935 13.61M12.3519 10.39L19.6544 1.6875M9.64935 13.61L2.34685 22.3125" stroke="#1B5E20" stroke-width="1.875" stroke-linecap="round" stroke-linejoin="round"/>
</svg>
