<svg width="30" height="30" viewBox="0 0 30 30" fill="none" xmlns="http://www.w3.org/2000/svg">
<path d="M15.7412 29.0725L15.7275 29.075L15.6387 29.1188L15.6137 29.1238L15.5962 29.1188L15.5075 29.075C15.4941 29.0709 15.4841 29.073 15.4775 29.0813L15.4725 29.0938L15.4512 29.6288L15.4575 29.6538L15.47 29.67L15.6 29.7625L15.6187 29.7675L15.6337 29.7625L15.7637 29.67L15.7787 29.65L15.7837 29.6288L15.7625 29.095C15.7591 29.0817 15.7521 29.0742 15.7412 29.0725ZM16.0725 28.9313L16.0562 28.9338L15.825 29.05L15.8125 29.0625L15.8087 29.0763L15.8312 29.6138L15.8375 29.6288L15.8475 29.6375L16.0987 29.7538C16.1146 29.758 16.1266 29.7546 16.135 29.7438L16.14 29.7263L16.0975 28.9588C16.0933 28.9438 16.085 28.9346 16.0725 28.9313ZM15.1787 28.9338C15.1732 28.9305 15.1666 28.9294 15.1603 28.9308C15.1541 28.9322 15.1485 28.9359 15.145 28.9413L15.1375 28.9588L15.095 29.7263C15.0958 29.7413 15.1029 29.7513 15.1162 29.7563L15.135 29.7538L15.3862 29.6375L15.3987 29.6275L15.4037 29.6138L15.425 29.0763L15.4212 29.0613L15.4087 29.0488L15.1787 28.9338Z" fill="#162F6A"/>
<path d="M15 5C16.0688 5 17.165 5.0275 18.2275 5.0725L19.4825 5.1325L20.6838 5.20375L21.8088 5.28L22.8362 5.36C23.9515 5.44486 25.001 5.92054 25.7999 6.70325C26.5989 7.48596 27.096 8.52549 27.2038 9.63875L27.2537 10.17L27.3475 11.3075C27.435 12.4862 27.5 13.7712 27.5 15C27.5 16.2288 27.435 17.5138 27.3475 18.6925L27.2537 19.83L27.2038 20.3612C27.096 21.4747 26.5987 22.5144 25.7995 23.2971C25.0003 24.0799 23.9505 24.5554 22.835 24.64L21.81 24.7188L20.685 24.7962L19.4825 24.8675L18.2275 24.9275C17.1523 24.9741 16.0762 24.9982 15 25C13.9238 24.9982 12.8477 24.9741 11.7725 24.9275L10.5175 24.8675L9.31625 24.7962L8.19125 24.7188L7.16375 24.64C6.04852 24.5551 4.999 24.0795 4.20006 23.2967C3.40111 22.514 2.90399 21.4745 2.79625 20.3612L2.74625 19.83L2.6525 18.6925C2.55729 17.4639 2.50642 16.2323 2.5 15C2.5 13.7712 2.565 12.4862 2.6525 11.3075L2.74625 10.17L2.79625 9.63875C2.90395 8.52569 3.40089 7.48632 4.19958 6.70363C4.99827 5.92095 6.04749 5.44515 7.1625 5.36L8.18875 5.28L9.31375 5.20375L10.5163 5.1325L11.7712 5.0725C12.8469 5.02591 13.9234 5.00174 15 5ZM15 7.5C13.9688 7.5 12.9075 7.5275 11.875 7.57L10.6525 7.62875L9.47875 7.6975L8.37625 7.7725L7.36625 7.85125C6.83524 7.88842 6.33461 8.11266 5.95333 8.4841C5.57204 8.85555 5.33479 9.35015 5.28375 9.88C5.1375 11.3912 5 13.2725 5 15C5 16.7275 5.1375 18.6088 5.28375 20.12C5.39 21.21 6.255 22.0575 7.36625 22.1488L8.37625 22.2262L9.47875 22.3013L10.6525 22.3713L11.875 22.43C12.9075 22.4725 13.9688 22.5 15 22.5C16.0312 22.5 17.0925 22.4725 18.125 22.43L19.3475 22.3713L20.5212 22.3025L21.6237 22.2275L22.6338 22.1488C23.1648 22.1116 23.6654 21.8873 24.0467 21.5159C24.428 21.1445 24.6652 20.6499 24.7163 20.12C24.8625 18.6088 25 16.7275 25 15C25 13.2725 24.8625 11.3912 24.7163 9.88C24.6652 9.35015 24.428 8.85555 24.0467 8.4841C23.6654 8.11266 23.1648 7.88842 22.6338 7.85125L21.6237 7.77375L20.5212 7.69875L19.3475 7.62875L18.125 7.57C17.0839 7.52532 16.042 7.50198 15 7.5ZM12.5 11.9688C12.4999 11.8466 12.5297 11.7262 12.5867 11.6182C12.6437 11.5101 12.7263 11.4177 12.8272 11.3488C12.9281 11.2799 13.0443 11.2367 13.1657 11.223C13.2871 11.2093 13.41 11.2254 13.5238 11.27L13.625 11.32L18.875 14.35C18.9795 14.4103 19.068 14.495 19.1328 14.5968C19.1976 14.6986 19.2369 14.8146 19.2474 14.9348C19.2578 15.0551 19.239 15.176 19.1927 15.2875C19.1464 15.399 19.0738 15.4976 18.9813 15.575L18.875 15.65L13.625 18.6812C13.5192 18.7425 13.4 18.777 13.2779 18.7817C13.1557 18.7863 13.0342 18.7611 12.9241 18.7081C12.8139 18.6551 12.7183 18.576 12.6457 18.4776C12.5731 18.3793 12.5257 18.2646 12.5075 18.1438L12.5 18.0312V11.9688Z" fill="#FBA100"/>
</svg>
