<svg width="30" height="27" viewBox="0 0 30 27" fill="none" xmlns="http://www.w3.org/2000/svg">
<g clip-path="url(#clip0_221_307)">
<path d="M20.3906 11.0717C20.3906 6.10384 16.298 2.07617 11.25 2.07617C6.202 2.07617 2.10938 6.10384 2.10938 11.0717C2.10938 16.0396 6.202 20.0672 11.25 20.0672C16.298 20.0672 20.3906 16.0396 20.3906 11.0717Z" stroke="#1B5E20" stroke-miterlimit="10"/>
<path d="M19.5808 7.44467C18.875 7.449 18.9444 8.73043 18.0651 8.12582C17.7386 7.9018 17.5377 7.57614 17.1277 7.47711C16.7696 7.39061 16.4026 7.48057 16.0489 7.54068C15.6468 7.60901 15.17 7.63972 14.865 7.93942C14.5701 8.22789 14.4141 8.61495 14.1003 8.90515C13.4934 9.46737 13.2372 10.0811 13.6301 10.8759C14.008 11.6401 14.7986 12.0549 15.6516 12.0004C16.4896 11.9455 17.3602 11.4671 17.336 12.6655C17.3272 13.0894 17.4173 13.3835 17.5496 13.7774C17.6722 14.1407 17.6639 14.4928 17.692 14.8677C17.7438 15.5683 17.8748 16.3537 18.2281 16.9726L18.8873 16.0575C18.9686 15.9442 19.1387 15.7854 19.1791 15.6518C19.2507 15.4152 19.1097 15.0087 19.0934 14.7436C19.0771 14.4785 19.085 14.2099 19.0437 13.9448C18.9857 13.5733 18.7625 13.2252 18.7317 12.858C18.675 12.1742 18.802 11.6285 18.2668 11.0567C17.75 10.5053 16.9924 10.373 16.2686 10.485C15.9038 10.5412 14.4356 10.7722 15.0249 9.95174C15.1414 9.79043 15.3449 9.65809 15.4758 9.50456C15.5896 9.37093 15.6885 9.12528 15.8221 9.02105C15.9557 8.91682 16.5692 8.79703 16.745 8.85022C16.9207 8.90342 17.104 9.15296 17.2565 9.26367C17.5382 9.4725 17.867 9.61136 18.2149 9.66847C18.8152 9.75497 20.0703 9.41158 20.0606 8.65388C20.0589 8.2906 19.7161 7.7846 19.5808 7.44467ZM12.6321 13.6793C12.3979 12.7088 11.058 12.3844 10.3355 11.8581C9.92025 11.5554 9.55067 11.0879 9.00531 11.0498C8.75394 11.0321 8.54345 11.0857 8.29428 11.0221C8.06576 10.9642 7.88646 10.8431 7.64301 10.8747C7.18817 10.9335 6.90121 11.4118 6.41254 11.3469C5.94892 11.2855 5.47123 10.7518 5.36576 10.3172C5.23041 9.75843 5.67953 9.57722 6.16073 9.52748C6.36156 9.50672 6.587 9.48424 6.77992 9.55646C7.03393 9.64944 7.1539 9.89422 7.38197 10.0179C7.80956 10.2484 7.89613 9.87995 7.83065 9.50629C7.73266 8.94667 7.6184 8.71832 8.12553 8.33341C8.47709 8.06787 8.77768 7.87585 8.72143 7.39883C8.68803 7.11858 8.53202 6.99187 8.67748 6.71292C8.78778 6.50057 9.09057 6.30898 9.28788 6.18227C9.79721 5.85531 11.4698 5.87953 10.7864 4.96441C10.5856 4.69584 10.2151 4.21579 9.86356 4.15006C9.42411 4.06832 9.22899 4.55096 8.92269 4.76374C8.60629 4.98387 7.99017 5.23384 7.67333 4.89348C7.24706 4.43549 7.9559 4.28499 8.11278 3.96539C8.26967 3.64579 7.74935 3.04162 7.47074 2.88852L6.16073 4.33429C6.1231 4.57642 6.1362 4.82356 6.19923 5.06052C6.26226 5.29748 6.37388 5.51924 6.52724 5.71216C6.78783 6.04215 7.20267 6.1481 7.22157 6.59874C7.24003 7.03122 7.17147 7.25265 6.88407 7.55668C6.75971 7.68643 6.67182 7.87066 6.54525 7.99219C6.39013 8.14053 6.44769 8.09512 6.20556 8.13577C5.75028 8.21145 5.36268 8.32822 4.92279 8.44759C4.18978 8.64696 4.12211 7.46846 3.78812 7.00614L2.68949 7.87931C2.67763 8.02246 2.86967 8.28584 2.92196 8.44153C3.22211 9.33114 3.82767 10.0192 4.21879 10.8703C4.63056 11.7716 5.73622 11.5216 6.22445 12.3113C6.65775 13.012 6.19501 13.899 6.51933 14.6324C6.75487 15.1648 7.31034 15.2812 7.69354 15.6704C8.0851 16.0635 8.07675 16.6015 8.13651 17.1131C8.20388 17.7149 8.31327 18.3114 8.46391 18.8984C8.51708 19.1012 8.56586 19.3694 8.70692 19.5367C8.8036 19.6518 9.13539 19.7508 9.00136 19.7889C9.18856 19.8192 9.52211 19.9913 9.67811 19.865C9.88378 19.6989 9.82885 19.1877 9.86444 18.9568C9.97123 18.2692 10.321 17.5967 10.793 17.082C11.2593 16.5743 11.8982 16.2305 12.292 15.6548C12.6756 15.0935 12.7912 14.3362 12.6321 13.6793ZM11.1648 14.8175C10.9011 15.2807 10.314 15.5908 9.93651 15.9589C9.83412 16.0588 9.61615 16.4047 9.48783 16.3299C9.39599 16.2763 9.36478 15.8274 9.33095 15.7245C9.15638 15.2061 8.82312 14.7537 8.37689 14.4292C8.23934 14.3267 7.89833 14.1935 7.81967 14.0529C7.73178 13.9003 7.81088 13.54 7.81395 13.3739C7.81879 13.1318 7.70673 12.7291 7.76737 12.509C7.83768 12.2551 7.70233 12.4082 7.93305 12.358C8.05477 12.3312 8.55751 12.4182 8.70912 12.4493C8.94994 12.4986 9.08266 12.6461 9.2725 12.7953C9.77172 13.1893 10.3215 13.4942 10.8809 13.796C11.3142 14.0322 11.4416 14.331 11.1648 14.8175ZM8.10619 2.90149C8.31449 3.10173 8.51049 3.33873 8.82118 3.35862C9.11517 3.37808 9.39247 3.22153 9.64911 3.4183C9.93388 3.63454 10.1391 3.9083 10.517 3.97577C10.8827 4.04107 11.2698 3.83089 11.3603 3.46285C11.4482 3.11211 11.2588 2.73066 11.2474 2.37863C11.2474 2.32976 11.2742 2.11265 11.2399 2.07589C11.2144 2.04821 11.0017 2.07935 10.9692 2.08022C10.731 2.08714 10.4934 2.10328 10.2564 2.12865C9.39239 2.22069 8.5462 2.43405 7.74364 2.76223C7.85043 2.83489 7.98446 2.86387 8.10619 2.90149ZM15.6621 5.33115C16.0352 5.33115 16.4141 5.16681 16.2936 4.74212C16.1926 4.38619 16.0203 3.99999 15.6011 4.19201C15.3343 4.31396 14.9564 4.62448 14.9252 4.93241C14.8896 5.28185 15.4134 5.33115 15.6621 5.33115ZM15.3642 7.18951C15.7452 7.41396 16.3103 7.30844 16.5977 6.98797C16.8223 6.73714 16.9546 6.30163 17.3584 6.30206C17.5362 6.3017 17.707 6.37021 17.8339 6.49279C18.0009 6.66275 17.968 6.82233 18.0036 7.03511C18.0831 7.513 18.6038 7.06236 18.7396 6.87726C18.8275 6.7566 18.9466 6.57755 18.9066 6.42056C18.8697 6.27395 18.6957 6.11783 18.6183 5.98333C18.3925 5.5941 18.2066 5.14129 17.8682 4.82688C17.5426 4.52415 17.1422 4.55918 16.8333 4.87359C16.5802 5.13308 16.2862 5.3385 16.113 5.65421C15.9909 5.87607 15.8533 5.98203 15.6059 6.03955C15.4697 6.07112 15.3141 6.0828 15.1998 6.17275C14.8817 6.41927 15.0627 7.01133 15.3642 7.18951Z" fill="#1B5E20"/>
<g clip-path="url(#clip1_221_307)">
<path d="M29.4082 14.4489C29.4082 12.8009 28.196 11.4752 26.6982 11.4752C24.6694 11.3804 22.6003 11.3438 20.4858 11.3438H19.8266C17.7173 11.3438 15.6445 11.3804 13.6157 11.4756C12.1216 11.4756 10.9094 12.8086 10.9094 14.4565C10.8178 15.7599 10.779 17.0636 10.7812 18.3673C10.7776 19.671 10.8191 20.976 10.9057 22.2821C10.9057 23.9301 12.1179 25.2667 13.612 25.2667C15.7434 25.3656 17.9297 25.4095 20.1526 25.4059C22.3791 25.4132 24.5593 25.3668 26.6931 25.2667C28.1909 25.2667 29.4031 23.9301 29.4031 22.2821C29.4909 20.9747 29.5312 19.671 29.5276 18.3636C29.5359 17.0599 29.4961 15.755 29.4082 14.4489ZM18.3618 21.9598V14.7638L23.6719 18.36L18.3618 21.9598Z" fill="#1B5E20"/>
</g>
</g>
<defs>
<clipPath id="clip0_221_307">
<rect width="30" height="27" fill="white"/>
</clipPath>
<clipPath id="clip1_221_307">
<rect width="18.75" height="18.75" fill="white" transform="translate(10.7812 9)"/>
</clipPath>
</defs>
</svg>
