<svg width="25" height="25" viewBox="0 0 25 25" fill="none" xmlns="http://www.w3.org/2000/svg">
<path d="M12.5 4.6875C13.5787 4.6875 14.4531 3.81306 14.4531 2.73438C14.4531 1.65569 13.5787 0.78125 12.5 0.78125C11.4213 0.78125 10.5469 1.65569 10.5469 2.73438C10.5469 3.81306 11.4213 4.6875 12.5 4.6875Z" stroke="#0C0C0C" stroke-linejoin="round"/>
<path d="M9.97228 13.4004C10.1139 12.5186 10.1774 11.666 9.94787 11.0767C9.75256 10.5698 9.32775 10.2861 8.81506 10.0928L4.29699 8.63087C3.71105 8.43556 3.16369 8.10841 3.12512 7.46193C3.07629 6.63185 3.80871 6.09474 4.54113 6.29006C4.54113 6.29006 8.83801 7.81056 12.5001 7.81056C16.1622 7.81056 20.4103 6.29689 20.4103 6.29689C21.2892 6.05275 21.8751 6.73634 21.8751 7.45851C21.8751 8.15236 21.338 8.3965 20.7032 8.62746L16.4064 10.1856C16.0157 10.332 15.381 10.625 15.1368 11.0733C14.8439 11.5982 14.8927 12.5152 15.0343 13.397L15.3224 14.8438L17.149 22.8467C17.2858 23.4888 16.8414 24.0889 16.2018 24.2012C15.5621 24.3135 15.0392 23.877 14.8497 23.2559L13.0157 17.5952C12.9275 17.3237 12.8494 17.0492 12.7814 16.7715L12.5001 15.625L12.2413 16.6821C12.1593 17.0191 12.0649 17.3524 11.9581 17.6821L10.1564 23.251C9.96105 23.8784 9.44836 24.313 8.80871 24.2012C8.16906 24.0894 7.71496 23.44 7.85851 22.8467L9.6842 14.8472L9.97228 13.4004Z" stroke="#090909" stroke-linejoin="round"/>
</svg>
