<svg width="28" height="39" viewBox="0 0 28 39" fill="none" xmlns="http://www.w3.org/2000/svg">
<path d="M22.5506 30.4419L21.1826 26.7339H16.2146L14.8466 30.4419H12.8306L17.7086 17.5359H19.7246L24.5846 30.4419H22.5506ZM19.3466 21.4239C19.3106 21.2919 19.2446 21.0939 19.1486 20.8299C19.0646 20.5539 18.9806 20.2779 18.8966 20.0019C18.8126 19.7139 18.7466 19.4799 18.6986 19.2999C18.6386 19.5399 18.5666 19.8039 18.4826 20.0919C18.4106 20.3679 18.3386 20.6259 18.2666 20.8659C18.1946 21.0939 18.1346 21.2799 18.0866 21.4239L16.7906 25.0419H20.6426L19.3466 21.4239Z" fill="#0C0C0C"/>
<path d="M9.48013 15.544C9.48013 17.112 8.32813 18.008 6.76013 18.008C4.85613 18.008 3.57613 16.888 2.34413 13.496L3.48013 13.032C4.34413 15.528 5.25613 16.84 6.64813 16.84C7.59213 16.84 8.21613 16.312 8.21613 15.4C8.21613 14.664 7.72013 14.088 7.09613 13.64C6.69613 13.752 6.21613 13.832 5.67213 13.88L5.41613 12.744C7.41613 12.488 7.94413 12.056 7.94413 11.176C7.94413 10.472 7.48013 10.024 6.61613 10.024C5.89613 10.024 5.20813 10.248 4.52013 10.664L4.10413 9.544C4.84013 9.128 5.67213 8.888 6.66413 8.888C8.48813 8.888 9.22413 9.96 9.22413 11.192C9.22413 12.024 8.92013 12.696 8.20013 13.16L8.23213 13.192C8.74413 13.32 9.30413 13.368 9.80013 13.368C10.2961 13.368 10.8241 13.32 11.3841 13.176V10.184H10.2161V9.048H14.3441V10.184H12.6801V19H11.3841V14.36C10.9521 14.472 10.5041 14.504 10.0561 14.504C9.80013 14.504 9.49613 14.488 9.19213 14.44C9.38413 14.776 9.48013 15.16 9.48013 15.544Z" fill="#0C0C0C"/>
<path fill-rule="evenodd" clip-rule="evenodd" d="M5.03141 25.4848C4.60807 25.759 4.07067 25.3636 4.20602 24.878L5.02206 21.9441C5.0443 21.8641 5.0844 21.7903 5.13936 21.7281C5.19431 21.6659 5.26268 21.617 5.33929 21.5851C5.41591 21.5532 5.49877 21.5391 5.58163 21.5439C5.66448 21.5487 5.74517 21.5722 5.81759 21.6128L8.47498 23.1C8.9152 23.3464 8.81715 24.0059 8.32438 24.1133L7.78673 24.2304C7.9801 25.0858 8.35298 25.5786 8.74073 25.8678C9.18023 26.1956 9.6784 26.2916 10.0592 26.3063C10.3184 26.3165 10.4486 26.5277 10.4872 26.6579C10.5246 26.7853 10.5343 27.0618 10.2772 27.1969C8.80869 27.9691 7.66424 27.9414 6.81427 27.3577C6.11827 26.8802 5.68761 26.0719 5.42264 25.2317L5.03141 25.4848ZM4.91654 24.7758L5.43942 24.4374C5.48334 24.409 5.53341 24.3914 5.58548 24.3862C5.63755 24.381 5.69011 24.3883 5.73879 24.4075C5.78747 24.4267 5.83086 24.4572 5.86536 24.4966C5.89986 24.5359 5.92447 24.583 5.93714 24.6337C6.17251 25.5751 6.57141 26.3938 7.18636 26.8157C7.68031 27.1546 8.38078 27.2802 9.40064 26.8787C9.02007 26.7913 8.66152 26.6266 8.34726 26.3949C7.75754 25.9548 7.26918 25.2166 7.07885 24.03C7.0655 23.947 7.08447 23.862 7.13185 23.7926C7.17923 23.7231 7.25142 23.6744 7.33358 23.6566L7.90157 23.5326L5.61818 22.2547L4.91654 24.7758Z" fill="#0C0C0C"/>
<path fill-rule="evenodd" clip-rule="evenodd" d="M22.8576 12.1407C23.292 11.8844 23.8124 12.3019 23.6569 12.7814L22.7191 15.6787C22.6935 15.7576 22.6504 15.8298 22.5929 15.8896C22.5354 15.9495 22.465 15.9955 22.3871 16.0241C22.3093 16.0528 22.2259 16.0634 22.1433 16.0552C22.0607 16.0469 21.9811 16.02 21.9104 15.9765L19.3174 14.3796C18.8879 14.1151 19.0134 13.4602 19.5102 13.3735L20.0523 13.2789C19.8948 12.4162 19.5428 11.9083 19.1675 11.6032C18.7421 11.2573 18.2483 11.1406 17.8685 11.11C17.6099 11.0889 17.4886 10.8725 17.4555 10.7408C17.4235 10.612 17.4253 10.3353 17.6878 10.211C19.1873 9.50088 20.3296 9.57626 21.1545 10.195C21.8299 10.7011 22.2265 11.5267 22.4561 12.3773L22.8576 12.1407ZM22.9428 12.8539L22.4062 13.1701C22.3611 13.1967 22.3104 13.2122 22.2581 13.2152C22.2059 13.2182 22.1537 13.2087 22.1058 13.1875C22.058 13.1663 22.0159 13.134 21.9831 13.0932C21.9503 13.0525 21.9277 13.0045 21.9171 12.9532C21.7212 12.0028 21.3569 11.1682 20.7601 10.721C20.2807 10.3617 19.5861 10.207 18.5504 10.5655C18.927 10.6687 19.2783 10.8483 19.5826 11.093C20.1535 11.5572 20.6106 12.3152 20.7512 13.5087C20.7611 13.5922 20.7386 13.6763 20.6883 13.7437C20.6381 13.8112 20.5639 13.8568 20.4811 13.8712L19.9084 13.9714L22.1365 15.3435L22.9428 12.8539Z" fill="#0C0C0C"/>
</svg>
