<svg width="448" height="33" viewBox="0 0 448 33" fill="none" xmlns="http://www.w3.org/2000/svg">
<path d="M4.022 7.936C7.316 7.936 8.504 9.853 8.504 12.688V16.279H13.634V10.447H10.367V8.206H18.98V10.447H16.28V25H13.634V18.52H8.504V19.357C8.504 20.626 7.856 21.166 7.019 21.166C5.507 21.166 3.563 19.006 3.563 17.548C3.563 16.846 3.968 16.279 5.318 16.279L5.912 16.333V12.769C5.912 10.879 5.426 9.907 4.076 9.907C3.158 9.907 2.645 10.447 2.645 11.203C2.645 12.148 3.32 12.607 4.778 12.769L4.535 14.74C1.997 14.578 0.242 13.336 0.242 11.149C0.242 9.016 1.808 7.936 4.022 7.936ZM23.5588 10.447V25H20.9128V10.447H18.5908V8.206H26.2588V10.447H23.5588ZM27.6778 23.407C27.6778 22.705 27.8578 22.21 28.2178 21.922C28.5778 21.634 29.0098 21.49 29.5138 21.49C30.0358 21.49 30.4768 21.634 30.8368 21.922C31.1968 22.21 31.3768 22.705 31.3768 23.407C31.3768 24.109 31.1968 24.613 30.8368 24.919C30.4768 25.225 30.0358 25.378 29.5138 25.378C29.0098 25.378 28.5778 25.225 28.2178 24.919C27.8578 24.613 27.6778 24.109 27.6778 23.407ZM54.8516 10.447H46.0766V15.253C46.8326 14.605 47.8856 14.2 49.1546 14.2C51.8006 14.2 53.3936 15.874 53.3936 18.601C53.3936 20.464 52.7456 22.165 51.1796 23.974L48.8846 22.597C49.9916 21.409 50.7476 20.14 50.7476 18.601C50.7476 17.17 50.0456 16.414 48.7766 16.414C47.7236 16.414 46.6976 17.143 46.0766 18.223V25H43.4306V20.788C42.4046 21.571 41.1356 22.03 39.5966 22.03C36.6806 22.03 34.3856 20.41 34.3856 17.305C34.3856 14.308 36.4646 12.58 40.0286 12.58C40.9466 12.58 41.8106 12.688 42.5126 12.85L42.2966 15.118C41.6756 14.983 40.9736 14.875 40.1906 14.875C38.1656 14.875 37.0316 15.766 37.0316 17.386C37.0316 18.979 38.1656 19.762 39.6776 19.762C41.2706 19.762 42.6206 18.871 43.4306 17.791V10.447H33.2246V8.206H54.8516V10.447ZM49.2497 31.21C48.2777 31.858 47.0087 32.236 45.5507 32.236C42.8237 32.236 41.0417 30.751 41.0417 28.294C41.0417 25.972 42.7967 24.541 46.0367 24.352L46.2797 26.35C44.3357 26.566 43.4717 27.214 43.4717 28.375C43.4717 29.59 44.3087 30.076 45.5507 30.076C46.6037 30.076 47.3867 29.779 48.4127 29.212L49.2497 31.21ZM56.2862 23.407C56.2862 22.705 56.4662 22.21 56.8262 21.922C57.1862 21.634 57.6182 21.49 58.1222 21.49C58.6442 21.49 59.0852 21.634 59.4452 21.922C59.8052 22.21 59.9852 22.705 59.9852 23.407C59.9852 24.109 59.8052 24.613 59.4452 24.919C59.0852 25.225 58.6442 25.378 58.1222 25.378C57.6182 25.378 57.1862 25.225 56.8262 24.919C56.4662 24.613 56.2862 24.109 56.2862 23.407ZM75.09 19.141C75.09 21.868 73.119 23.434 70.311 23.434C66.99 23.434 64.749 21.544 62.589 15.766L64.803 14.794C66.315 19.006 67.8 21.139 70.041 21.139C71.553 21.139 72.525 20.302 72.525 18.844C72.525 17.764 71.877 16.873 70.932 16.171C70.23 16.36 69.393 16.495 68.448 16.576L68.016 14.389C71.202 14.011 72.066 13.309 72.066 11.959C72.066 10.852 71.337 10.204 69.987 10.204C68.799 10.204 67.665 10.555 66.531 11.23L65.748 9.043C67.017 8.341 68.475 7.936 70.176 7.936C73.362 7.936 74.658 9.745 74.658 11.932C74.658 13.282 74.145 14.416 73.038 15.199C73.065 15.226 73.065 15.226 73.092 15.226C73.848 15.415 74.712 15.496 75.522 15.496C76.386 15.496 77.277 15.388 78.195 15.145V10.447H76.305V8.206H83.568V10.447H80.841V25H78.195V17.467C77.493 17.629 76.791 17.683 76.062 17.683C75.657 17.683 75.225 17.656 74.766 17.602C74.982 18.088 75.09 18.601 75.09 19.141ZM83.1641 8.206H99.0131V10.447H96.3131V25H93.6671V17.251H89.0501V18.439C89.0501 19.627 88.4561 20.194 87.5111 20.194C86.0531 20.194 84.1091 18.088 84.1091 16.495C84.1091 15.604 84.5681 15.01 85.8911 15.01H93.6671V10.447H83.1641V8.206ZM94.0786 32.236C90.8116 32.236 88.3546 30.643 86.0596 27.997L87.8416 26.377C90.0016 28.969 91.7296 30.049 93.9706 30.049C95.7526 30.049 96.6166 29.374 96.6166 28.24C96.6166 27.295 96.0766 26.647 94.9156 26.647C93.9436 26.647 93.0796 27.079 92.2966 27.808L91.0276 26.053C92.0536 25.108 93.2686 24.568 94.9966 24.568C97.5886 24.568 99.0196 26.188 99.0196 28.429C99.0196 30.778 97.3186 32.236 94.0786 32.236ZM100.478 23.407C100.478 22.705 100.658 22.21 101.018 21.922C101.378 21.634 101.81 21.49 102.314 21.49C102.836 21.49 103.277 21.634 103.637 21.922C103.997 22.21 104.177 22.705 104.177 23.407C104.177 24.109 103.997 24.613 103.637 24.919C103.277 25.225 102.836 25.378 102.314 25.378C101.81 25.378 101.378 25.225 101.018 24.919C100.658 24.613 100.478 24.109 100.478 23.407ZM119.416 10.447V25H116.77V19.843C115.825 20.437 114.61 20.815 113.287 20.815C109.885 20.815 108.049 18.979 108.049 15.361V10.447H106.024V8.206H122.143V10.447H119.416ZM116.77 10.447H110.695V15.415C110.695 17.602 111.613 18.574 113.314 18.574C114.637 18.574 115.879 17.845 116.77 16.954V10.447ZM123.575 23.407C123.575 22.705 123.755 22.21 124.115 21.922C124.475 21.634 124.907 21.49 125.411 21.49C125.933 21.49 126.374 21.634 126.734 21.922C127.094 22.21 127.274 22.705 127.274 23.407C127.274 24.109 127.094 24.613 126.734 24.919C126.374 25.225 125.933 25.378 125.411 25.378C124.907 25.378 124.475 25.225 124.115 24.919C123.755 24.613 123.575 24.109 123.575 23.407ZM130.121 18.979V16.549H136.817V18.979H130.121ZM159.45 10.447H150.675V15.253C151.431 14.605 152.484 14.2 153.753 14.2C156.399 14.2 157.992 15.874 157.992 18.601C157.992 20.464 157.344 22.165 155.778 23.974L153.483 22.597C154.59 21.409 155.346 20.14 155.346 18.601C155.346 17.17 154.644 16.414 153.375 16.414C152.322 16.414 151.296 17.143 150.675 18.223V25H148.029V20.788C147.003 21.571 145.734 22.03 144.195 22.03C141.279 22.03 138.984 20.41 138.984 17.305C138.984 14.308 141.063 12.58 144.627 12.58C145.545 12.58 146.409 12.688 147.111 12.85L146.895 15.118C146.274 14.983 145.572 14.875 144.789 14.875C142.764 14.875 141.63 15.766 141.63 17.386C141.63 18.979 142.764 19.762 144.276 19.762C145.869 19.762 147.219 18.871 148.029 17.791V10.447H137.823V8.206H159.45V10.447ZM148.044 8.395C146.64 3.913 146.1 3.103 144.345 3.103C143.616 3.103 142.806 3.292 142.185 3.535L141.483 1.321C142.293 0.996998 143.346 0.807999 144.291 0.807999C147.504 0.807999 148.557 2.347 150.42 8.395H148.044ZM159.049 10.447V8.206H169.093V10.447H159.049ZM163.396 20.194C161.938 20.194 159.994 18.088 159.994 16.495C159.994 15.604 160.453 15.01 161.776 15.01H169.849V17.251H164.935V18.439C164.935 19.627 164.341 20.194 163.396 20.194ZM168.592 24.568L172.939 22.786C170.671 22.111 168.862 20.518 168.862 17.656C168.862 14.362 171.157 12.742 175.612 12.742H176.989V10.447H167.539V8.206H182.416V10.447H179.608V14.929H176.017C173.02 14.929 171.508 15.847 171.508 17.791C171.508 19.762 173.074 20.842 175.531 20.842C175.801 20.842 176.125 20.815 176.422 20.761C176.341 20.437 176.287 20.086 176.287 19.762C176.287 18.601 177.043 17.926 178.312 17.926C179.77 17.926 180.796 18.979 180.796 20.194C180.796 21.112 180.256 21.814 179.284 22.327C179.743 23.38 180.283 24.433 181.093 25.756L178.69 26.782C178.042 25.513 177.529 24.136 177.151 23.029L169.861 26.728L168.592 24.568ZM187.088 10.447V25H184.442V10.447H182.12V8.206H184.388C183.605 4.75 182.417 3.049 180.635 3.049C179.177 3.049 178.529 3.913 178.529 5.317C178.529 6.343 178.907 7.342 179.393 8.395H176.801C176.207 7.18 175.883 5.965 175.883 4.858C175.883 2.455 177.476 0.807999 180.203 0.807999C184.064 0.807999 185.765 3.508 186.845 8.206H189.788V10.447H187.088ZM205.841 8.206V10.447H203.168V25H200.495V20.572C199.55 21.22 198.362 21.625 196.769 21.625C193.151 21.625 191.099 19.546 190.154 15.334C192.881 14.848 194.015 14.092 194.015 12.715C194.015 11.851 193.61 11.068 192.962 10.447H189.371V8.206H205.841ZM193.34 16.819C193.934 18.493 194.906 19.384 196.769 19.384C198.362 19.384 199.577 18.574 200.495 17.575V10.447H195.743C196.337 11.257 196.634 12.148 196.634 13.039C196.634 14.929 195.581 16.09 193.34 16.819ZM212.469 8.206H227.967V10.447H224.673C225.267 11.122 225.591 11.959 225.591 12.931C225.591 14.173 225.078 15.226 224.052 16.009C225.672 17.413 226.32 18.817 226.32 20.437C226.32 23.299 224.268 25 221.298 25C217.626 25 215.304 22.948 213.225 16.711L215.52 15.739C217.14 20.761 218.598 22.678 220.947 22.678C222.513 22.678 223.593 21.841 223.593 20.221C223.593 18.898 223.026 17.899 221.919 17.035C221.109 17.278 220.191 17.44 219.138 17.494L218.652 15.253C221.676 14.983 222.918 14.389 222.918 12.715C222.918 11.797 222.459 10.987 221.676 10.447H212.469V8.206ZM240.943 10.447V25H238.297V19.843C237.352 20.437 236.137 20.815 234.814 20.815C231.412 20.815 229.576 18.979 229.576 15.361V10.447H227.551V8.206H243.67V10.447H240.943ZM238.297 10.447H232.222V15.415C232.222 17.602 233.14 18.574 234.841 18.574C236.164 18.574 237.406 17.845 238.297 16.954V10.447ZM248.234 10.447V25H245.588V10.447H243.266V8.206H245.588C244.211 3.886 243.644 3.103 241.916 3.103C241.214 3.103 240.404 3.292 239.756 3.535L239.054 1.321C239.891 0.996998 240.917 0.807999 241.862 0.807999C245.075 0.807999 246.128 2.347 247.937 8.206H250.934V10.447H248.234ZM257.78 21.031C254.378 21.031 252.542 19.195 252.542 15.577V10.447H250.517V8.206H261.29V10.447H256.484L261.695 17.008L262.235 17.656L262.775 19.087C261.587 20.302 259.724 21.031 257.78 21.031ZM255.161 15.631C255.161 17.818 256.106 18.79 257.807 18.79C258.779 18.79 259.589 18.52 260.264 18.142L255.161 11.716V15.631ZM277.223 10.447V25H274.577V10.447H271.175V16.306C271.175 18.007 270.851 19.006 270.176 19.816C269.393 20.761 268.151 21.274 266.342 21.274C264.533 21.274 263.237 20.734 262.4 19.627C261.752 18.79 261.401 17.602 261.401 15.577V10.447H259.376V8.206H279.923V10.447H277.223ZM266.288 19.033C267.152 19.033 267.719 18.79 268.07 18.25C268.421 17.683 268.529 17.062 268.529 15.604V10.447H264.074V15.604C264.074 16.927 264.155 17.629 264.506 18.169C264.857 18.736 265.397 19.033 266.288 19.033ZM302.734 10.447H300.034V25H297.388V21.139C296.308 21.814 295.039 22.165 293.365 22.165C289.882 22.165 287.722 20.275 287.722 17.359C287.722 14.092 290.125 12.472 293.635 12.472C294.742 12.472 295.66 12.58 296.47 12.769L296.281 14.902C295.552 14.713 294.742 14.632 293.905 14.632C293.608 14.632 293.311 14.659 293.014 14.686L296.47 19.087C296.821 18.844 297.118 18.574 297.388 18.304V10.447H286.561V8.206H302.734V10.447ZM290.314 17.386C290.314 19.168 291.583 20.032 293.473 20.032C293.932 20.032 294.391 19.978 294.823 19.843L291.232 15.334C290.638 15.793 290.314 16.468 290.314 17.386ZM307.322 10.447V25H304.676V10.447H302.354V8.206H310.022V10.447H307.322ZM315.572 10.447V18.709C315.572 19.843 315.032 20.464 314.114 20.464C312.575 20.464 310.631 18.331 310.631 16.738C310.631 15.874 311.09 15.253 312.44 15.253L312.926 15.28V10.447H309.605V8.206H325.616V10.447H322.916V25H320.27V10.447H315.572ZM341.009 10.447H338.309V25H335.69V21.031C334.664 21.733 333.368 22.111 331.856 22.111C328.697 22.111 326.402 20.383 326.402 17.332C326.402 14.146 328.697 12.58 332.045 12.58C333.098 12.58 333.989 12.688 334.772 12.877L334.583 15.118C333.854 14.983 333.152 14.875 332.288 14.875C330.371 14.875 329.048 15.766 329.048 17.413C329.048 18.871 330.047 19.816 331.91 19.843C333.422 19.843 334.799 19.114 335.69 18.007V10.447H325.241V8.206H341.009V10.447ZM345.608 10.447V25H342.962V10.447H340.64V8.206H348.308V10.447H345.608ZM347.891 8.206H363.74V10.447H361.04V25H358.394V17.251H353.777V18.439C353.777 19.627 353.183 20.194 352.238 20.194C350.78 20.194 348.836 18.088 348.836 16.495C348.836 15.604 349.295 15.01 350.618 15.01H358.394V10.447H347.891V8.206ZM368.336 10.447V25H365.69V10.447H363.368V8.206H365.636C364.853 4.75 363.665 3.049 361.883 3.049C360.425 3.049 359.777 3.913 359.777 5.317C359.777 6.343 360.155 7.342 360.641 8.395H358.049C357.455 7.18 357.131 5.965 357.131 4.858C357.131 2.455 358.724 0.807999 361.451 0.807999C365.312 0.807999 367.013 3.508 368.093 8.206H371.036V10.447H368.336ZM385.301 25.459C382.52 22.705 380.414 20.086 379.469 18.358C378.929 17.413 378.686 16.63 378.686 15.928C378.686 14.929 379.28 14.335 380.306 14.335C381.143 14.335 381.872 14.821 382.574 15.55C383.384 14.848 383.654 13.822 383.654 12.715C383.654 11.824 383.492 11.014 383.249 10.447H377.633V8.206H396.776V10.447H394.076V25H391.43V18.331C390.566 18.52 389.648 18.628 388.676 18.628C387.245 18.628 385.571 18.331 384.032 17.548C383.546 17.899 382.925 18.223 382.169 18.493C383.465 20.167 385.247 21.868 387.272 23.758L385.301 25.459ZM388.649 16.36C389.621 16.36 390.512 16.252 391.43 16.009V10.447H385.922C386.192 11.176 386.327 12.013 386.327 13.012C386.327 14.119 386.057 15.091 385.544 15.901C386.597 16.225 387.515 16.36 388.649 16.36ZM404.048 25.459C401.267 22.705 399.161 20.086 398.216 18.358C397.676 17.413 397.433 16.63 397.433 15.928C397.433 14.929 398.027 14.335 399.053 14.335C399.89 14.335 400.619 14.821 401.321 15.55C402.131 14.848 402.401 13.822 402.401 12.715C402.401 11.824 402.239 11.014 401.996 10.447H396.38V8.206H409.988V10.447H404.669C404.939 11.176 405.074 12.013 405.074 13.012C405.074 14.2 404.75 15.226 404.183 16.063C405.236 16.414 406.262 16.549 407.396 16.549C408.341 16.549 409.205 16.468 410.204 16.306L410.285 18.52C409.34 18.763 408.53 18.817 407.477 18.817C405.992 18.817 404.21 18.493 402.644 17.656C402.185 17.98 401.618 18.25 400.916 18.493C402.212 20.167 403.994 21.868 406.019 23.758L404.048 25.459ZM422.03 10.447V25H419.357V20.761C418.304 21.49 416.873 21.922 415.118 21.922C411.608 21.922 409.178 20.194 408.071 16.225C412.499 15.577 413.822 14.146 413.822 12.148C413.822 10.798 413.174 9.961 412.013 9.961C411.095 9.961 410.528 10.474 410.528 11.311C410.528 12.067 411.122 12.607 412.121 12.985L410.906 14.632C408.854 13.957 408.017 12.742 408.017 11.257C408.017 9.259 409.448 7.936 411.959 7.936C414.821 7.936 416.414 9.664 416.414 12.31C416.414 14.902 414.875 16.738 411.554 17.683C412.337 19.114 413.471 19.708 415.064 19.708C416.765 19.708 418.331 18.925 419.357 17.683V10.447H417.467V8.206H424.703V10.447H422.03ZM429.297 10.447V25H426.651V10.447H424.329V8.206H431.997V10.447H429.297ZM431.58 8.206H447.429V10.447H444.729V25H442.083V17.251H437.466V18.439C437.466 19.627 436.872 20.194 435.927 20.194C434.469 20.194 432.525 18.088 432.525 16.495C432.525 15.604 432.984 15.01 434.307 15.01H442.083V10.447H431.58V8.206Z" fill="black"/>
</svg>
