<svg width="611" height="17" viewBox="0 0 611 17" fill="none" xmlns="http://www.w3.org/2000/svg">
<path d="M6.615 16H0.798V14.698L2.583 14.173V2.854L0.798 2.308V1.006H6.615V2.308L4.851 2.854V14.173L6.615 14.698V16ZM15.8238 2.749C15.0818 2.749 14.4168 2.882 13.8288 3.148C13.2408 3.4 12.7368 3.778 12.3168 4.282C11.9108 4.786 11.5958 5.395 11.3718 6.109C11.1618 6.823 11.0568 7.628 11.0568 8.524C11.0568 9.7 11.2318 10.722 11.5818 11.59C11.9318 12.444 12.4568 13.102 13.1568 13.564C13.8568 14.026 14.7388 14.257 15.8028 14.257C16.4468 14.257 17.0628 14.201 17.6508 14.089C18.2528 13.963 18.8618 13.802 19.4778 13.606V15.559C18.8898 15.783 18.2878 15.944 17.6718 16.042C17.0558 16.154 16.3418 16.21 15.5298 16.21C14.0038 16.21 12.7298 15.895 11.7078 15.265C10.6998 14.635 9.94383 13.739 9.43983 12.577C8.93583 11.415 8.68383 10.057 8.68383 8.503C8.68383 7.369 8.83783 6.333 9.14583 5.395C9.46783 4.443 9.92983 3.624 10.5318 2.938C11.1338 2.252 11.8758 1.727 12.7578 1.363C13.6538 0.984999 14.6828 0.795999 15.8448 0.795999C16.6008 0.795999 17.3428 0.879999 18.0708 1.048C18.7988 1.202 19.4568 1.426 20.0448 1.72L19.2048 3.61C18.7148 3.386 18.1828 3.19 17.6088 3.022C17.0488 2.84 16.4538 2.749 15.8238 2.749ZM32.0529 16L30.4569 11.674H24.6609L23.0649 16H20.7129L26.4039 0.943H28.7559L34.4259 16H32.0529ZM28.3149 5.479C28.2729 5.325 28.1959 5.094 28.0839 4.786C27.9859 4.464 27.8879 4.142 27.7899 3.82C27.6919 3.484 27.6149 3.211 27.5589 3.001C27.4889 3.281 27.4049 3.589 27.3069 3.925C27.2229 4.247 27.1389 4.548 27.0549 4.828C26.9709 5.094 26.9009 5.311 26.8449 5.479L25.3329 9.7H29.8269L28.3149 5.479ZM40.6481 1.006C41.9361 1.006 42.9931 1.167 43.8191 1.489C44.6451 1.811 45.2611 2.294 45.6671 2.938C46.0731 3.568 46.2761 4.366 46.2761 5.332C46.2761 6.102 46.1291 6.753 45.8351 7.285C45.5551 7.803 45.1911 8.23 44.7431 8.566C44.2951 8.888 43.8261 9.147 43.3361 9.343L47.5361 16H44.9321L41.3201 9.931H38.7161V16H36.4481V1.006H40.6481ZM40.5011 2.938H38.7161V8.041H40.6061C41.3761 8.041 42.0061 7.943 42.4961 7.747C43.0001 7.551 43.3641 7.257 43.5881 6.865C43.8261 6.473 43.9451 5.99 43.9451 5.416C43.9451 4.814 43.8191 4.338 43.5671 3.988C43.3291 3.624 42.9511 3.358 42.4331 3.19C41.9291 3.022 41.2851 2.938 40.5011 2.938ZM48.5192 11.317V9.427H53.7272V11.317H48.5192ZM62.9098 2.749C62.1678 2.749 61.5028 2.882 60.9148 3.148C60.3268 3.4 59.8228 3.778 59.4028 4.282C58.9968 4.786 58.6818 5.395 58.4578 6.109C58.2478 6.823 58.1428 7.628 58.1428 8.524C58.1428 9.7 58.3178 10.722 58.6678 11.59C59.0178 12.444 59.5428 13.102 60.2428 13.564C60.9428 14.026 61.8248 14.257 62.8888 14.257C63.5328 14.257 64.1488 14.201 64.7368 14.089C65.3388 13.963 65.9478 13.802 66.5638 13.606V15.559C65.9758 15.783 65.3738 15.944 64.7578 16.042C64.1418 16.154 63.4278 16.21 62.6158 16.21C61.0898 16.21 59.8158 15.895 58.7938 15.265C57.7858 14.635 57.0298 13.739 56.5258 12.577C56.0218 11.415 55.7698 10.057 55.7698 8.503C55.7698 7.369 55.9238 6.333 56.2318 5.395C56.5538 4.443 57.0158 3.624 57.6178 2.938C58.2198 2.252 58.9618 1.727 59.8438 1.363C60.7398 0.984999 61.7688 0.795999 62.9308 0.795999C63.6868 0.795999 64.4288 0.879999 65.1568 1.048C65.8848 1.202 66.5428 1.426 67.1308 1.72L66.2908 3.61C65.8008 3.386 65.2688 3.19 64.6948 3.022C64.1348 2.84 63.5398 2.749 62.9098 2.749ZM78.2358 16H69.7938V1.006H78.2358V2.938H72.0618V7.222H77.8578V9.133H72.0618V14.047H78.2358V16ZM93.7893 16H91.0383L83.4573 3.883H83.3733C83.3873 4.163 83.4013 4.464 83.4153 4.786C83.4433 5.108 83.4643 5.451 83.4783 5.815C83.4923 6.165 83.5063 6.529 83.5203 6.907C83.5343 7.271 83.5413 7.642 83.5413 8.02V16H81.4833V1.006H84.2133L91.7733 13.06H91.8363C91.8223 12.85 91.8083 12.591 91.7943 12.283C91.7803 11.961 91.7663 11.618 91.7523 11.254C91.7523 10.89 91.7453 10.519 91.7313 10.141C91.7173 9.763 91.7033 9.406 91.6893 9.07V1.006H93.7893V16ZM102.827 16H100.559V2.959H96.065V1.006H107.321V2.959H102.827V16ZM113.82 1.006C115.108 1.006 116.165 1.167 116.991 1.489C117.817 1.811 118.433 2.294 118.839 2.938C119.245 3.568 119.448 4.366 119.448 5.332C119.448 6.102 119.301 6.753 119.007 7.285C118.727 7.803 118.363 8.23 117.915 8.566C117.467 8.888 116.998 9.147 116.508 9.343L120.708 16H118.104L114.492 9.931H111.888V16H109.62V1.006H113.82ZM113.673 2.938H111.888V8.041H113.778C114.548 8.041 115.178 7.943 115.668 7.747C116.172 7.551 116.536 7.257 116.76 6.865C116.998 6.473 117.117 5.99 117.117 5.416C117.117 4.814 116.991 4.338 116.739 3.988C116.501 3.624 116.123 3.358 115.605 3.19C115.101 3.022 114.457 2.938 113.673 2.938ZM132.254 16L130.658 11.674H124.862L123.266 16H120.914L126.605 0.943H128.957L134.627 16H132.254ZM128.516 5.479C128.474 5.325 128.397 5.094 128.285 4.786C128.187 4.464 128.089 4.142 127.991 3.82C127.893 3.484 127.816 3.211 127.76 3.001C127.69 3.281 127.606 3.589 127.508 3.925C127.424 4.247 127.34 4.548 127.256 4.828C127.172 5.094 127.102 5.311 127.046 5.479L125.534 9.7H130.028L128.516 5.479ZM136.649 16V1.006H138.917V14.047H145.322V16H136.649ZM157.983 16H152.166V14.698L153.951 14.173V2.854L152.166 2.308V1.006H157.983V2.308L156.219 2.854V14.173L157.983 14.698V16ZM173.093 16H170.342L162.761 3.883H162.677C162.691 4.163 162.705 4.464 162.719 4.786C162.747 5.108 162.768 5.451 162.782 5.815C162.796 6.165 162.81 6.529 162.824 6.907C162.838 7.271 162.845 7.642 162.845 8.02V16H160.787V1.006H163.517L171.077 13.06H171.14C171.126 12.85 171.112 12.591 171.098 12.283C171.084 11.961 171.07 11.618 171.056 11.254C171.056 10.89 171.049 10.519 171.035 10.141C171.021 9.763 171.007 9.406 170.993 9.07V1.006H173.093V16ZM185.701 11.947C185.701 12.843 185.484 13.606 185.05 14.236C184.616 14.866 183.993 15.356 183.181 15.706C182.369 16.042 181.403 16.21 180.283 16.21C179.737 16.21 179.212 16.175 178.708 16.105C178.204 16.049 177.735 15.965 177.301 15.853C176.867 15.741 176.482 15.601 176.146 15.433V13.291C176.706 13.543 177.364 13.774 178.12 13.984C178.876 14.18 179.646 14.278 180.43 14.278C181.102 14.278 181.662 14.187 182.11 14.005C182.558 13.823 182.894 13.571 183.118 13.249C183.342 12.927 183.454 12.549 183.454 12.115C183.454 11.653 183.335 11.268 183.097 10.96C182.873 10.638 182.516 10.344 182.026 10.078C181.55 9.798 180.906 9.504 180.094 9.196C179.534 8.986 179.023 8.755 178.561 8.503C178.113 8.237 177.714 7.929 177.364 7.579C177.028 7.229 176.769 6.823 176.587 6.361C176.405 5.899 176.314 5.36 176.314 4.744C176.314 3.918 176.517 3.211 176.923 2.623C177.343 2.035 177.917 1.587 178.645 1.279C179.373 0.956999 180.22 0.795999 181.186 0.795999C181.998 0.795999 182.747 0.879999 183.433 1.048C184.133 1.202 184.798 1.419 185.428 1.699L184.714 3.568C184.14 3.33 183.559 3.134 182.971 2.98C182.383 2.826 181.767 2.749 181.123 2.749C180.563 2.749 180.094 2.833 179.716 3.001C179.338 3.169 179.051 3.4 178.855 3.694C178.673 3.988 178.582 4.331 178.582 4.723C178.582 5.185 178.687 5.57 178.897 5.878C179.107 6.186 179.443 6.473 179.905 6.739C180.367 6.991 180.976 7.271 181.732 7.579C182.572 7.901 183.286 8.251 183.874 8.629C184.476 9.007 184.931 9.462 185.239 9.994C185.547 10.512 185.701 11.163 185.701 11.947ZM193.677 16H191.409V2.959H186.915V1.006H198.171V2.959H193.677V16ZM205.09 16H199.273V14.698L201.058 14.173V2.854L199.273 2.308V1.006H205.09V2.308L203.326 2.854V14.173L205.09 14.698V16ZM212.933 16H210.665V2.959H206.171V1.006H217.427V2.959H212.933V16ZM231.36 10.708C231.36 11.744 231.143 12.682 230.709 13.522C230.289 14.348 229.638 15.006 228.756 15.496C227.874 15.972 226.761 16.21 225.417 16.21C223.513 16.21 222.064 15.706 221.07 14.698C220.09 13.676 219.6 12.332 219.6 10.666V1.006H221.868V10.561C221.868 11.793 222.169 12.724 222.771 13.354C223.373 13.97 224.29 14.278 225.522 14.278C226.362 14.278 227.048 14.124 227.58 13.816C228.112 13.508 228.497 13.081 228.735 12.535C228.987 11.975 229.113 11.31 229.113 10.54V1.006H231.36V10.708ZM240.27 16H238.002V2.959H233.508V1.006H244.764V2.959H240.27V16ZM255.505 16H247.063V1.006H255.505V2.938H249.331V7.222H255.127V9.133H249.331V14.047H255.505V16ZM266.455 16H264.208V1.006H272.65V2.938H266.455V7.831H272.251V9.763H266.455V16ZM288.533 8.482C288.533 9.644 288.386 10.701 288.092 11.653C287.812 12.591 287.378 13.403 286.79 14.089C286.216 14.775 285.488 15.3 284.606 15.664C283.738 16.028 282.723 16.21 281.561 16.21C280.371 16.21 279.335 16.028 278.453 15.664C277.585 15.286 276.857 14.761 276.269 14.089C275.695 13.403 275.268 12.584 274.988 11.632C274.708 10.68 274.568 9.623 274.568 8.461C274.568 6.921 274.82 5.577 275.324 4.429C275.828 3.281 276.598 2.385 277.634 1.741C278.684 1.097 280 0.774999 281.582 0.774999C283.122 0.774999 284.403 1.097 285.425 1.741C286.461 2.371 287.238 3.267 287.756 4.429C288.274 5.577 288.533 6.928 288.533 8.482ZM276.962 8.482C276.962 9.686 277.123 10.722 277.445 11.59C277.767 12.444 278.271 13.109 278.957 13.585C279.643 14.047 280.511 14.278 281.561 14.278C282.625 14.278 283.493 14.047 284.165 13.585C284.837 13.109 285.334 12.444 285.656 11.59C285.978 10.722 286.139 9.686 286.139 8.482C286.139 6.676 285.775 5.269 285.047 4.261C284.333 3.239 283.178 2.728 281.582 2.728C280.518 2.728 279.643 2.959 278.957 3.421C278.271 3.883 277.767 4.541 277.445 5.395C277.123 6.249 276.962 7.278 276.962 8.482ZM295.991 1.006C297.279 1.006 298.336 1.167 299.162 1.489C299.988 1.811 300.604 2.294 301.01 2.938C301.416 3.568 301.619 4.366 301.619 5.332C301.619 6.102 301.472 6.753 301.178 7.285C300.898 7.803 300.534 8.23 300.086 8.566C299.638 8.888 299.169 9.147 298.679 9.343L302.879 16H300.275L296.663 9.931H294.059V16H291.791V1.006H295.991ZM295.844 2.938H294.059V8.041H295.949C296.719 8.041 297.349 7.943 297.839 7.747C298.343 7.551 298.707 7.257 298.931 6.865C299.169 6.473 299.288 5.99 299.288 5.416C299.288 4.814 299.162 4.338 298.91 3.988C298.672 3.624 298.294 3.358 297.776 3.19C297.272 3.022 296.628 2.938 295.844 2.938ZM319.145 11.947C319.145 12.843 318.928 13.606 318.494 14.236C318.06 14.866 317.437 15.356 316.625 15.706C315.813 16.042 314.847 16.21 313.727 16.21C313.181 16.21 312.656 16.175 312.152 16.105C311.648 16.049 311.179 15.965 310.745 15.853C310.311 15.741 309.926 15.601 309.59 15.433V13.291C310.15 13.543 310.808 13.774 311.564 13.984C312.32 14.18 313.09 14.278 313.874 14.278C314.546 14.278 315.106 14.187 315.554 14.005C316.002 13.823 316.338 13.571 316.562 13.249C316.786 12.927 316.898 12.549 316.898 12.115C316.898 11.653 316.779 11.268 316.541 10.96C316.317 10.638 315.96 10.344 315.47 10.078C314.994 9.798 314.35 9.504 313.538 9.196C312.978 8.986 312.467 8.755 312.005 8.503C311.557 8.237 311.158 7.929 310.808 7.579C310.472 7.229 310.213 6.823 310.031 6.361C309.849 5.899 309.758 5.36 309.758 4.744C309.758 3.918 309.961 3.211 310.367 2.623C310.787 2.035 311.361 1.587 312.089 1.279C312.817 0.956999 313.664 0.795999 314.63 0.795999C315.442 0.795999 316.191 0.879999 316.877 1.048C317.577 1.202 318.242 1.419 318.872 1.699L318.158 3.568C317.584 3.33 317.003 3.134 316.415 2.98C315.827 2.826 315.211 2.749 314.567 2.749C314.007 2.749 313.538 2.833 313.16 3.001C312.782 3.169 312.495 3.4 312.299 3.694C312.117 3.988 312.026 4.331 312.026 4.723C312.026 5.185 312.131 5.57 312.341 5.878C312.551 6.186 312.887 6.473 313.349 6.739C313.811 6.991 314.42 7.271 315.176 7.579C316.016 7.901 316.73 8.251 317.318 8.629C317.92 9.007 318.375 9.462 318.683 9.994C318.991 10.512 319.145 11.163 319.145 11.947ZM333.715 10.708C333.715 11.744 333.498 12.682 333.064 13.522C332.644 14.348 331.993 15.006 331.111 15.496C330.229 15.972 329.116 16.21 327.772 16.21C325.868 16.21 324.419 15.706 323.425 14.698C322.445 13.676 321.955 12.332 321.955 10.666V1.006H324.223V10.561C324.223 11.793 324.524 12.724 325.126 13.354C325.728 13.97 326.645 14.278 327.877 14.278C328.717 14.278 329.403 14.124 329.935 13.816C330.467 13.508 330.852 13.081 331.09 12.535C331.342 11.975 331.468 11.31 331.468 10.54V1.006H333.715V10.708ZM341.974 1.006C343.248 1.006 344.312 1.125 345.166 1.363C346.034 1.601 346.685 2 347.119 2.56C347.567 3.106 347.791 3.834 347.791 4.744C347.791 5.332 347.686 5.857 347.476 6.319C347.266 6.767 346.958 7.145 346.552 7.453C346.16 7.747 345.67 7.943 345.082 8.041V8.146C345.684 8.244 346.223 8.426 346.699 8.692C347.175 8.944 347.553 9.315 347.833 9.805C348.113 10.295 348.253 10.932 348.253 11.716C348.253 12.626 348.036 13.403 347.602 14.047C347.182 14.677 346.573 15.16 345.775 15.496C344.991 15.832 344.053 16 342.961 16H337.585V1.006H341.974ZM342.352 7.264C343.528 7.264 344.333 7.075 344.767 6.697C345.215 6.319 345.439 5.759 345.439 5.017C345.439 4.261 345.173 3.722 344.641 3.4C344.109 3.078 343.262 2.917 342.1 2.917H339.853V7.264H342.352ZM339.853 9.112V14.11H342.604C343.822 14.11 344.669 13.872 345.145 13.396C345.621 12.92 345.859 12.29 345.859 11.506C345.859 11.03 345.754 10.61 345.544 10.246C345.334 9.882 344.977 9.602 344.473 9.406C343.983 9.21 343.311 9.112 342.457 9.112H339.853ZM356.406 16H354.138V2.959H349.644V1.006H360.9V2.959H356.406V16ZM367.399 1.006C368.687 1.006 369.744 1.167 370.57 1.489C371.396 1.811 372.012 2.294 372.418 2.938C372.824 3.568 373.027 4.366 373.027 5.332C373.027 6.102 372.88 6.753 372.586 7.285C372.306 7.803 371.942 8.23 371.494 8.566C371.046 8.888 370.577 9.147 370.087 9.343L374.287 16H371.683L368.071 9.931H365.467V16H363.199V1.006H367.399ZM367.252 2.938H365.467V8.041H367.357C368.127 8.041 368.757 7.943 369.247 7.747C369.751 7.551 370.115 7.257 370.339 6.865C370.577 6.473 370.696 5.99 370.696 5.416C370.696 4.814 370.57 4.338 370.318 3.988C370.08 3.624 369.702 3.358 369.184 3.19C368.68 3.022 368.036 2.938 367.252 2.938ZM389.718 8.482C389.718 9.644 389.571 10.701 389.277 11.653C388.997 12.591 388.563 13.403 387.975 14.089C387.401 14.775 386.673 15.3 385.791 15.664C384.923 16.028 383.908 16.21 382.746 16.21C381.556 16.21 380.52 16.028 379.638 15.664C378.77 15.286 378.042 14.761 377.454 14.089C376.88 13.403 376.453 12.584 376.173 11.632C375.893 10.68 375.753 9.623 375.753 8.461C375.753 6.921 376.005 5.577 376.509 4.429C377.013 3.281 377.783 2.385 378.819 1.741C379.869 1.097 381.185 0.774999 382.767 0.774999C384.307 0.774999 385.588 1.097 386.61 1.741C387.646 2.371 388.423 3.267 388.941 4.429C389.459 5.577 389.718 6.928 389.718 8.482ZM378.147 8.482C378.147 9.686 378.308 10.722 378.63 11.59C378.952 12.444 379.456 13.109 380.142 13.585C380.828 14.047 381.696 14.278 382.746 14.278C383.81 14.278 384.678 14.047 385.35 13.585C386.022 13.109 386.519 12.444 386.841 11.59C387.163 10.722 387.324 9.686 387.324 8.482C387.324 6.676 386.96 5.269 386.232 4.261C385.518 3.239 384.363 2.728 382.767 2.728C381.703 2.728 380.828 2.959 380.142 3.421C379.456 3.883 378.952 4.541 378.63 5.395C378.308 6.249 378.147 7.278 378.147 8.482ZM397.176 1.006C399.136 1.006 400.564 1.405 401.46 2.203C402.356 2.987 402.804 4.086 402.804 5.5C402.804 6.13 402.699 6.732 402.489 7.306C402.293 7.88 401.964 8.398 401.502 8.86C401.04 9.308 400.424 9.665 399.654 9.931C398.898 10.183 397.967 10.309 396.861 10.309H395.244V16H392.976V1.006H397.176ZM397.008 2.917H395.244V8.398H396.609C397.463 8.398 398.177 8.307 398.751 8.125C399.325 7.929 399.752 7.628 400.032 7.222C400.326 6.802 400.473 6.256 400.473 5.584C400.473 4.688 400.193 4.023 399.633 3.589C399.087 3.141 398.212 2.917 397.008 2.917ZM410.455 16H404.638V14.698L406.423 14.173V2.854L404.638 2.308V1.006H410.455V2.308L408.691 2.854V14.173L410.455 14.698V16ZM419.664 2.749C418.922 2.749 418.257 2.882 417.669 3.148C417.081 3.4 416.577 3.778 416.157 4.282C415.751 4.786 415.436 5.395 415.212 6.109C415.002 6.823 414.897 7.628 414.897 8.524C414.897 9.7 415.072 10.722 415.422 11.59C415.772 12.444 416.297 13.102 416.997 13.564C417.697 14.026 418.579 14.257 419.643 14.257C420.287 14.257 420.903 14.201 421.491 14.089C422.093 13.963 422.702 13.802 423.318 13.606V15.559C422.73 15.783 422.128 15.944 421.512 16.042C420.896 16.154 420.182 16.21 419.37 16.21C417.844 16.21 416.57 15.895 415.548 15.265C414.54 14.635 413.784 13.739 413.28 12.577C412.776 11.415 412.524 10.057 412.524 8.503C412.524 7.369 412.678 6.333 412.986 5.395C413.308 4.443 413.77 3.624 414.372 2.938C414.974 2.252 415.716 1.727 416.598 1.363C417.494 0.984999 418.523 0.795999 419.685 0.795999C420.441 0.795999 421.183 0.879999 421.911 1.048C422.639 1.202 423.297 1.426 423.885 1.72L423.045 3.61C422.555 3.386 422.023 3.19 421.449 3.022C420.889 2.84 420.294 2.749 419.664 2.749ZM435.893 16L434.297 11.674H428.501L426.905 16H424.553L430.244 0.943H432.596L438.266 16H435.893ZM432.155 5.479C432.113 5.325 432.036 5.094 431.924 4.786C431.826 4.464 431.728 4.142 431.63 3.82C431.532 3.484 431.455 3.211 431.399 3.001C431.329 3.281 431.245 3.589 431.147 3.925C431.063 4.247 430.979 4.548 430.895 4.828C430.811 5.094 430.741 5.311 430.685 5.479L429.173 9.7H433.667L432.155 5.479ZM440.288 16V1.006H442.556V14.047H448.961V16H440.288ZM468.699 16H466.431V9.154H459.27V16H457.002V1.006H459.27V7.222H466.431V1.006H468.699V16ZM485.941 8.482C485.941 9.644 485.794 10.701 485.5 11.653C485.22 12.591 484.786 13.403 484.198 14.089C483.624 14.775 482.896 15.3 482.014 15.664C481.146 16.028 480.131 16.21 478.969 16.21C477.779 16.21 476.743 16.028 475.861 15.664C474.993 15.286 474.265 14.761 473.677 14.089C473.103 13.403 472.676 12.584 472.396 11.632C472.116 10.68 471.976 9.623 471.976 8.461C471.976 6.921 472.228 5.577 472.732 4.429C473.236 3.281 474.006 2.385 475.042 1.741C476.092 1.097 477.408 0.774999 478.99 0.774999C480.53 0.774999 481.811 1.097 482.833 1.741C483.869 2.371 484.646 3.267 485.164 4.429C485.682 5.577 485.941 6.928 485.941 8.482ZM474.37 8.482C474.37 9.686 474.531 10.722 474.853 11.59C475.175 12.444 475.679 13.109 476.365 13.585C477.051 14.047 477.919 14.278 478.969 14.278C480.033 14.278 480.901 14.047 481.573 13.585C482.245 13.109 482.742 12.444 483.064 11.59C483.386 10.722 483.547 9.686 483.547 8.482C483.547 6.676 483.183 5.269 482.455 4.261C481.741 3.239 480.586 2.728 478.99 2.728C477.926 2.728 477.051 2.959 476.365 3.421C475.679 3.883 475.175 4.541 474.853 5.395C474.531 6.249 474.37 7.278 474.37 8.482ZM493.399 1.006C494.687 1.006 495.744 1.167 496.57 1.489C497.396 1.811 498.012 2.294 498.418 2.938C498.824 3.568 499.027 4.366 499.027 5.332C499.027 6.102 498.88 6.753 498.586 7.285C498.306 7.803 497.942 8.23 497.494 8.566C497.046 8.888 496.577 9.147 496.087 9.343L500.287 16H497.683L494.071 9.931H491.467V16H489.199V1.006H493.399ZM493.252 2.938H491.467V8.041H493.357C494.127 8.041 494.757 7.943 495.247 7.747C495.751 7.551 496.115 7.257 496.339 6.865C496.577 6.473 496.696 5.99 496.696 5.416C496.696 4.814 496.57 4.338 496.318 3.988C496.08 3.624 495.702 3.358 495.184 3.19C494.68 3.022 494.036 2.938 493.252 2.938ZM507.528 16H505.26V2.959H500.766V1.006H512.022V2.959H507.528V16ZM518.941 16H513.124V14.698L514.909 14.173V2.854L513.124 2.308V1.006H518.941V2.308L517.177 2.854V14.173L518.941 14.698V16ZM528.15 2.749C527.408 2.749 526.743 2.882 526.155 3.148C525.567 3.4 525.063 3.778 524.643 4.282C524.237 4.786 523.922 5.395 523.698 6.109C523.488 6.823 523.383 7.628 523.383 8.524C523.383 9.7 523.558 10.722 523.908 11.59C524.258 12.444 524.783 13.102 525.483 13.564C526.183 14.026 527.065 14.257 528.129 14.257C528.773 14.257 529.389 14.201 529.977 14.089C530.579 13.963 531.188 13.802 531.804 13.606V15.559C531.216 15.783 530.614 15.944 529.998 16.042C529.382 16.154 528.668 16.21 527.856 16.21C526.33 16.21 525.056 15.895 524.034 15.265C523.026 14.635 522.27 13.739 521.766 12.577C521.262 11.415 521.01 10.057 521.01 8.503C521.01 7.369 521.164 6.333 521.472 5.395C521.794 4.443 522.256 3.624 522.858 2.938C523.46 2.252 524.202 1.727 525.084 1.363C525.98 0.984999 527.009 0.795999 528.171 0.795999C528.927 0.795999 529.669 0.879999 530.397 1.048C531.125 1.202 531.783 1.426 532.371 1.72L531.531 3.61C531.041 3.386 530.509 3.19 529.935 3.022C529.375 2.84 528.78 2.749 528.15 2.749ZM546.668 10.708C546.668 11.744 546.451 12.682 546.017 13.522C545.597 14.348 544.946 15.006 544.064 15.496C543.182 15.972 542.069 16.21 540.725 16.21C538.821 16.21 537.372 15.706 536.378 14.698C535.398 13.676 534.908 12.332 534.908 10.666V1.006H537.176V10.561C537.176 11.793 537.477 12.724 538.079 13.354C538.681 13.97 539.598 14.278 540.83 14.278C541.67 14.278 542.356 14.124 542.888 13.816C543.42 13.508 543.805 13.081 544.043 12.535C544.295 11.975 544.421 11.31 544.421 10.54V1.006H546.668V10.708ZM550.538 16V1.006H552.806V14.047H559.211V16H550.538ZM566.427 16H564.159V2.959H559.665V1.006H570.921V2.959H566.427V16ZM584.854 10.708C584.854 11.744 584.637 12.682 584.203 13.522C583.783 14.348 583.132 15.006 582.25 15.496C581.368 15.972 580.255 16.21 578.911 16.21C577.007 16.21 575.558 15.706 574.564 14.698C573.584 13.676 573.094 12.332 573.094 10.666V1.006H575.362V10.561C575.362 11.793 575.663 12.724 576.265 13.354C576.867 13.97 577.784 14.278 579.016 14.278C579.856 14.278 580.542 14.124 581.074 13.816C581.606 13.508 581.991 13.081 582.229 12.535C582.481 11.975 582.607 11.31 582.607 10.54V1.006H584.854V10.708ZM592.924 1.006C594.212 1.006 595.269 1.167 596.095 1.489C596.921 1.811 597.537 2.294 597.943 2.938C598.349 3.568 598.552 4.366 598.552 5.332C598.552 6.102 598.405 6.753 598.111 7.285C597.831 7.803 597.467 8.23 597.019 8.566C596.571 8.888 596.102 9.147 595.612 9.343L599.812 16H597.208L593.596 9.931H590.992V16H588.724V1.006H592.924ZM592.777 2.938H590.992V8.041H592.882C593.652 8.041 594.282 7.943 594.772 7.747C595.276 7.551 595.64 7.257 595.864 6.865C596.102 6.473 596.221 5.99 596.221 5.416C596.221 4.814 596.095 4.338 595.843 3.988C595.605 3.624 595.227 3.358 594.709 3.19C594.205 3.022 593.561 2.938 592.777 2.938ZM610.455 16H602.013V1.006H610.455V2.938H604.281V7.222H610.077V9.133H604.281V14.047H610.455V16Z" fill="black"/>
</svg>
