<svg width="15" height="15" viewBox="0 0 15 15" fill="none" xmlns="http://www.w3.org/2000/svg">
<g clip-path="url(#clip0_221_93)">
<path d="M13.2813 5.9375H12.3438M2.65635 5.9375H3.59385M7.96885 0.625V1.5625M4.21229 2.18125L4.87479 2.84438M11.7251 2.18125L11.062 2.84438M8.37854 3.88344C5.6226 6.28906 2.65541 9.31469 1.60135 10.4053C1.35447 10.6606 1.27572 11.0328 1.41791 11.3578C1.49541 11.5344 1.58697 11.7272 1.68166 11.8912C1.77635 12.0553 1.8976 12.2309 2.01197 12.3863C2.22197 12.6722 2.58385 12.7897 2.92822 12.7038C4.39979 12.3359 8.50385 11.2794 11.9651 10.0956" stroke="#1B5E20" stroke-width="1.5" stroke-linecap="round" stroke-linejoin="round"/>
<path d="M6.75393 5.37281C6.75393 5.37281 7.40736 6.02656 8.51518 7.94531C9.62299 9.86406 9.86236 10.7569 9.86236 10.7569M7.09268 11.6741L7.2783 12.3672C7.32705 12.5492 7.33948 12.739 7.31487 12.9258C7.29027 13.1126 7.22911 13.2928 7.13488 13.4559C7.04066 13.6191 6.91522 13.7621 6.76573 13.8768C6.61624 13.9915 6.44562 14.0756 6.26361 14.1244C6.08161 14.1731 5.89178 14.1856 5.70498 14.1609C5.51817 14.1363 5.33804 14.0752 5.17487 13.981C5.0117 13.8867 4.86869 13.7613 4.754 13.6118C4.6393 13.4623 4.55518 13.2917 4.50643 13.1097L4.35205 12.5322M8.13955 3.46875C8.13955 3.46875 8.88861 4.28781 10.3789 6.86937C11.8692 9.45094 12.2042 10.5091 12.2042 10.5091" stroke="#1B5E20" stroke-width="1.5" stroke-linecap="round" stroke-linejoin="round"/>
</g>
<defs>
<clipPath id="clip0_221_93">
<rect width="15" height="15" fill="white"/>
</clipPath>
</defs>
</svg>
