<svg width="40" height="40" viewBox="0 0 40 40" fill="none" xmlns="http://www.w3.org/2000/svg">
<path d="M31.6667 36.6667H11.6667M11.6667 36.6667H8.33333M11.6667 36.6667V31.6667M31.6667 26.6667H16.6667M26.6667 3.33337H20M20 11.6667C15 11.6667 11.6667 13.3334 11.6667 18.3334V21.6667M26.6667 7.66671V19C26.6667 19.2653 26.5613 19.5196 26.3738 19.7071C26.1862 19.8947 25.9319 20 25.6667 20H21C20.7348 20 20.4804 19.8947 20.2929 19.7071C20.1054 19.5196 20 19.2653 20 19V7.66671C20 7.40149 20.1054 7.14714 20.2929 6.9596C20.4804 6.77206 20.7348 6.66671 21 6.66671H25.6667C25.9319 6.66671 26.1862 6.77206 26.3738 6.9596C26.5613 7.14714 26.6667 7.40149 26.6667 7.66671Z" stroke="#1B5E20" stroke-width="2.5" stroke-linecap="round" stroke-linejoin="round"/>
<path d="M11.6667 31.6667C10.3406 31.6667 9.0688 31.14 8.13112 30.2023C7.19344 29.2646 6.66666 27.9928 6.66666 26.6667C6.66666 25.3407 7.19344 24.0689 8.13112 23.1312C9.0688 22.1935 10.3406 21.6667 11.6667 21.6667C12.9927 21.6667 14.2645 22.1935 15.2022 23.1312C16.1399 24.0689 16.6667 25.3407 16.6667 26.6667C16.6667 27.9928 16.1399 29.2646 15.2022 30.2023C14.2645 31.14 12.9927 31.6667 11.6667 31.6667Z" stroke="#1B5E20" stroke-width="2.5" stroke-linecap="round" stroke-linejoin="round"/>
</svg>
