<svg width="61" height="61" viewBox="0 0 61 61" fill="none" xmlns="http://www.w3.org/2000/svg">
<path d="M25.4167 27.9583H45.75M25.4167 35.5833H35.5833M25.4167 20.3333H45.75M50.8333 55.9167H21.35C13.7758 55.9167 7.625 49.7658 7.625 42.1917V12.7083M21.35 7.625H49.8167C50.6177 7.625 51.411 7.78278 52.151 8.08934C52.8911 8.39589 53.5636 8.84521 54.13 9.41165C54.6965 9.97809 55.1458 10.6505 55.4523 11.3906C55.7589 12.1307 55.9167 12.9239 55.9167 13.725V42.1917C55.9167 43.8095 55.274 45.361 54.13 46.505C52.986 47.649 51.4345 48.2917 49.8167 48.2917H21.35C20.5489 48.2917 19.7557 48.1339 19.0156 47.8273C18.2755 47.5208 17.6031 47.0715 17.0366 46.505C15.8927 45.361 15.25 43.8095 15.25 42.1917V13.725C15.25 12.9239 15.4078 12.1307 15.7143 11.3906C16.0209 10.6505 16.4702 9.97809 17.0366 9.41165C18.1806 8.26768 19.7322 7.625 21.35 7.625Z" stroke="#1B5E20" stroke-width="1.5" stroke-miterlimit="10" stroke-linecap="round" stroke-linejoin="round"/>
</svg>
