<svg width="61" height="61" viewBox="0 0 61 61" fill="none" xmlns="http://www.w3.org/2000/svg">
<path d="M40.6666 56.552V49.9907L46.5988 50.9908C47.1187 51.0785 47.6512 51.0573 48.1625 50.9287C48.6738 50.8001 49.1529 50.5668 49.5694 50.2437C49.986 49.9205 50.331 49.5144 50.5827 49.0511C50.8343 48.5878 50.9872 48.0773 51.0315 47.552L51.761 38.895C54.112 38.3676 55.8022 37.5175 56.8989 36.8083C57.8826 36.1729 57.9969 34.8894 57.3412 33.9185L52.0723 26.1194C51.4471 14.3959 41.743 5.08325 29.8645 5.08325V56.552" stroke="#1B5E20" stroke-width="1.5" stroke-linecap="round" stroke-linejoin="round"/>
<path d="M3.8125 30.5C3.8125 31.5111 4.21417 32.4809 4.92916 33.1958C5.64414 33.9108 6.61386 34.3125 7.625 34.3125C8.63614 34.3125 9.60586 33.9108 10.3208 33.1958C11.0358 32.4809 11.4375 31.5111 11.4375 30.5C11.4375 29.4889 11.0358 28.5191 10.3208 27.8042C9.60586 27.0892 8.63614 26.6875 7.625 26.6875C6.61386 26.6875 5.64414 27.0892 4.92916 27.8042C4.21417 28.5191 3.8125 29.4889 3.8125 30.5ZM10.1667 11.4375C10.1667 11.9382 10.2653 12.4339 10.4569 12.8965C10.6485 13.359 10.9293 13.7793 11.2833 14.1333C11.6373 14.4874 12.0576 14.7682 12.5202 14.9598C12.9827 15.1514 13.4785 15.25 13.9792 15.25C14.4798 15.25 14.9756 15.1514 15.4381 14.9598C15.9007 14.7682 16.321 14.4874 16.675 14.1333C17.029 13.7793 17.3099 13.359 17.5015 12.8965C17.6931 12.4339 17.7917 11.9382 17.7917 11.4375C17.7917 10.9368 17.6931 10.4411 17.5015 9.97852C17.3099 9.51597 17.029 9.09568 16.675 8.74166C16.321 8.38763 15.9007 8.1068 15.4381 7.91521C14.9756 7.72361 14.4798 7.625 13.9792 7.625C13.4785 7.625 12.9827 7.72361 12.5202 7.91521C12.0576 8.1068 11.6373 8.38763 11.2833 8.74166C10.9293 9.09568 10.6485 9.51597 10.4569 9.97852C10.2653 10.4411 10.1667 10.9368 10.1667 11.4375ZM8.89583 50.8333C8.89583 51.8445 9.29751 52.8142 10.0125 53.5292C10.7275 54.2442 11.6972 54.6458 12.7083 54.6458C13.7195 54.6458 14.6892 54.2442 15.4042 53.5292C16.1192 52.8142 16.5208 51.8445 16.5208 50.8333C16.5208 49.8222 16.1192 48.8525 15.4042 48.1375C14.6892 47.4225 13.7195 47.0208 12.7083 47.0208C11.6972 47.0208 10.7275 47.4225 10.0125 48.1375C9.29751 48.8525 8.89583 49.8222 8.89583 50.8333Z" stroke="#1B5E20" stroke-width="1.5"/>
<path d="M11.4375 30.4999H29.8646M29.8646 20.3333H22.875L17.1563 14.6145M29.8646 41.9374H21.6042L15.8854 47.6562" stroke="#1B5E20" stroke-width="1.5" stroke-linecap="round" stroke-linejoin="round"/>
</svg>
